<svg width="635" height="323" viewBox="0 0 635 323" fill="none" xmlns="http://www.w3.org/2000/svg">
<path d="M101.005 254.4C101.005 254.4 110.825 271.82 181.545 279.75C252.265 287.68 287.945 314.12 332.885 322.05C377.825 329.98 433.345 277.77 481.595 285.7C529.845 293.63 587.995 263.42 592.595 254.4H101.005Z" fill="#673DE6"/>
<path d="M611.625 250.94H601.165L140.545 251.03C140.545 251.03 135.885 247.35 128.625 241.03C125.515 238.32 121.925 235.13 118.005 231.53C116.598 230.23 115.141 228.873 113.635 227.46C99.9147 214.56 83.3147 197.46 69.8347 179.35C55.6347 160.23 44.8347 139.88 44.5747 121.85C44.5747 121.45 44.5747 121.04 44.5747 120.64C44.7247 103.2 48.1647 84.3897 56.6547 66.9297C61.7957 56.2893 68.6959 46.5931 77.0647 38.2497C99.9147 15.4897 136.885 -0.450297 194.265 0.00970342C261.185 0.539703 330.585 25.4897 393.265 60.0097C406.375 67.2297 419.185 74.8697 431.625 82.7897C440.825 88.6497 449.805 94.6497 458.565 100.79C481.712 116.966 503.975 134.375 525.255 152.94C570.345 192.37 602.005 229.66 611.625 250.94Z" fill="url(#paint0_linear_11_995)"/>
<path style="mix-blend-mode:overlay" opacity="0.45" d="M611.625 250.94H601.165L140.545 251.03C140.545 251.03 135.885 247.35 128.625 241.03C125.515 238.32 121.925 235.13 118.005 231.53C116.598 230.23 115.141 228.873 113.635 227.46C99.9147 214.56 83.3147 197.46 69.8347 179.35C55.6347 160.23 44.8347 139.88 44.5747 121.85C50.3047 118.85 63.7147 112.73 74.8047 115.51C89.3447 119.14 92.4547 136.42 92.4547 136.42C92.4547 136.42 102.875 128.02 113.785 132.01C124.695 136 126.355 147.56 126.355 147.56C126.355 147.56 139.225 140.92 150.805 143.75C162.385 146.58 171.675 157.75 159.265 165.07C146.855 172.39 133.115 166.71 132.785 166.58C132.955 166.8 137.785 173.34 128.995 181.39C119.995 189.57 154.465 196.67 154.465 196.67C154.465 196.67 155.725 174.25 178.905 176.76C202.085 179.27 220.685 191.76 220.685 191.76C220.685 191.76 221.855 157.45 240.365 151.18C258.875 144.91 268.365 165.05 268.365 165.05C268.365 165.05 309.365 138.51 323.285 163.25C337.205 187.99 337.775 192.68 337.775 192.68C337.775 192.68 349.635 127.68 386.855 130.68C424.075 133.68 430.985 159.46 430.335 162.09C429.685 164.72 441.025 145.41 452.215 155.89C463.405 166.37 469.895 181 469.895 181L528.785 174C528.785 174 522.785 162.38 525.225 152.85C570.345 192.37 602.005 229.66 611.625 250.94Z" fill="url(#paint1_linear_11_995)"/>
<path style="mix-blend-mode:hard-light" d="M431.614 82.7997H257.544C279.354 82.7997 283.654 74.8697 296.544 70.5797C297.164 70.3697 297.774 70.1897 298.384 70.0397C310.384 67.0397 320.384 73.8597 328.094 73.5497C336.194 73.2197 345.094 64.6297 354.364 61.6497C357.514 60.6497 360.764 60.9697 364.104 61.7597C370.604 63.2897 377.414 66.5997 384.344 65.2897C390.344 64.1497 390.824 61.7097 393.244 60.0197C406.364 67.2497 419.174 74.8797 431.614 82.7997Z" fill="url(#paint2_linear_11_995)"/>
<path style="mix-blend-mode:hard-light" d="M206.235 66.9397H56.6545C61.714 56.4793 68.4722 46.9299 76.6545 38.6797L77.0645 38.2697C80.8077 37.4999 84.6065 37.0317 88.4245 36.8697C112.155 35.8697 117.175 53.7197 117.175 53.7197C117.175 53.7197 123.385 45.4597 134.615 49.4297C145.845 53.3997 141.895 58.3497 150.815 60.9897C152 61.3239 153.239 61.4325 154.465 61.3097C162.965 60.5697 173.705 51.2597 183.195 54.7097C194.105 58.6797 186.985 66.9397 206.235 66.9397Z" fill="url(#paint3_linear_11_995)"/>
<path d="M631.545 257.77H75.2047C74.7622 257.77 74.3239 257.683 73.9151 257.513C73.5062 257.344 73.1347 257.096 72.8218 256.783C72.5088 256.47 72.2606 256.098 72.0912 255.689C71.9219 255.28 71.8347 254.842 71.8347 254.4C71.8347 253.957 71.9219 253.519 72.0912 253.11C72.2606 252.701 72.5088 252.33 72.8218 252.017C73.1347 251.704 73.5062 251.456 73.9151 251.286C74.3239 251.117 74.7622 251.03 75.2047 251.03H631.545C631.987 251.03 632.425 251.117 632.834 251.286C633.243 251.456 633.615 251.704 633.928 252.017C634.241 252.33 634.489 252.701 634.658 253.11C634.828 253.519 634.915 253.957 634.915 254.4C634.915 254.842 634.828 255.28 634.658 255.689C634.489 256.098 634.241 256.47 633.928 256.783C633.615 257.096 633.243 257.344 632.834 257.513C632.425 257.683 631.987 257.77 631.545 257.77Z" fill="#673DE6"/>
<g style="mix-blend-mode:overlay" opacity="0.25">
<path d="M364.105 61.7597C354.185 64.2997 343.005 75.0597 335.755 76.6397C326.615 78.6397 316.035 73.9897 305.755 71.4097C303.322 70.7712 300.845 70.3133 298.345 70.0397C310.345 67.0397 320.345 73.8597 328.055 73.5497C336.155 73.2197 345.055 64.6297 354.325 61.6497C357.515 60.6397 360.725 60.9697 364.105 61.7597Z" fill="white"/>
</g>
<g style="mix-blend-mode:overlay" opacity="0.25">
<path d="M154.465 61.3097C145.535 65.9697 141.405 55.3597 133.625 51.8797C124.705 47.8797 118.425 60.3297 115.785 58.1797C113.145 56.0297 111.985 46.7797 101.905 41.9897C96.1845 39.2697 85.1345 38.6797 76.6545 38.6797L77.0645 38.2697C80.8077 37.4999 84.6065 37.0317 88.4245 36.8697C112.155 35.8697 117.175 53.7197 117.175 53.7197C117.175 53.7197 123.385 45.4597 134.615 49.4297C145.845 53.3997 141.895 58.3497 150.815 60.9897C152 61.3239 153.239 61.4325 154.465 61.3097Z" fill="white"/>
</g>
<path d="M394.655 39.5997C394.655 39.5997 457.115 95.3597 481.895 87.7597C506.675 80.1597 350.955 6.42971 394.655 39.5997Z" fill="url(#paint4_linear_11_995)"/>
<path d="M34.7246 96.2497C34.7246 96.2497 13.4846 133.65 50.6246 173.07C59.2146 182.19 60.2146 199.14 43.0246 200.07C25.8346 201 -0.925382 159.07 0.0246182 125.34C0.974618 91.6097 40.4746 76.3897 34.7246 96.2497Z" fill="url(#paint5_linear_11_995)"/>
<path d="M460.724 294.95C460.724 294.95 424.724 302.88 415.514 315.11C410.984 321.11 428.954 320.19 444.244 313.62C460.184 306.76 473.344 294.11 460.724 294.95Z" fill="#673DE6"/>
<path d="M199.885 292.64C199.885 292.64 213.885 292.31 226.215 297.1C238.545 301.89 241.215 316.59 228.965 318.41C216.715 320.23 188.895 303.93 190.465 297.26C191.625 292.36 199.885 292.64 199.885 292.64Z" fill="#673DE6"/>
<g style="mix-blend-mode:overlay">
<path d="M136.025 212.91L128.115 240.34C124.995 237.63 121.405 234.44 117.495 230.84L115.775 227.65C115.775 227.65 118.775 192.48 108.845 178.39C118.365 185.04 122.915 211.64 122.915 211.64L121.435 213.64H122.915C124.583 217.158 125.686 220.918 126.185 224.78C132.275 193.14 126.355 177.84 126.185 177.43C129.733 182.123 132.381 187.432 133.995 193.09C136.915 202.87 135.825 209.03 135.825 209.03L133.455 212.93L136.025 212.91Z" fill="black"/>
</g>
<g style="mix-blend-mode:overlay">
<path d="M375.825 239.89C377.447 238.419 378.948 236.82 380.315 235.11C380.655 234.67 380.965 234.23 381.245 233.79L382.415 235.22L382.015 232.97C382.015 232.97 390.075 230.15 393.015 222.39C391.245 230.94 387.835 237.26 383.825 240.22C382.253 241.459 380.296 242.107 378.295 242.05C372.015 241.71 375.825 239.89 375.825 239.89Z" fill="black"/>
<g style="mix-blend-mode:overlay" opacity="0.25">
<path d="M392.974 222.38C392.974 222.38 387.084 242.45 375.574 241.68Z" fill="black"/>
</g>
<g style="mix-blend-mode:overlay" opacity="0.25">
<path d="M375.824 239.89C377.446 238.419 378.948 236.82 380.314 235.11C381.044 237.067 382.234 238.82 383.784 240.22C382.213 241.459 380.255 242.107 378.254 242.05C372.014 241.71 375.824 239.89 375.824 239.89Z" fill="black"/>
</g>
</g>
<g style="mix-blend-mode:overlay">
<path d="M313.204 224.44C313.204 224.44 294.574 206.99 297.584 183.63C299.504 194.45 307.374 207.36 307.374 207.36L306.374 210.27L309.874 209.59C309.874 209.59 314.284 182.94 304.364 170.12C317.744 183.9 317.584 204.42 317.584 204.42L315.084 208.25L317.604 209.35C317.604 209.35 314.674 219.35 323.384 215.49C332.094 211.63 337.604 178.58 329.734 170.17C339.174 178.28 337.604 206.17 337.604 207.1C337.604 208.03 333.514 211.77 333.514 211.77L336.654 214.03C336.654 214.03 334.724 232.86 313.204 224.44Z" fill="black"/>
</g>
<g style="mix-blend-mode:overlay">
<path d="M398.515 249.25C398.515 249.25 392.045 243.19 393.095 235.07C393.8 237.977 394.947 240.759 396.495 243.32L396.155 244.32L397.365 244.08C397.365 244.08 398.895 234.82 395.455 230.37C400.105 235.16 400.045 242.29 400.045 242.29L399.175 243.6L400.045 243.98C400.045 243.98 399.045 247.44 402.045 246.11C405.045 244.78 406.985 233.29 404.255 230.37C407.535 233.19 406.985 242.87 406.985 243.2C406.985 243.53 405.565 244.82 405.565 244.82L406.655 245.61C406.655 245.61 405.975 252.25 398.515 249.25Z" fill="black"/>
</g>
<path d="M373.775 240.38L368.515 240.74C372.305 237.34 371.745 234.07 371.175 232.58C371.065 232.281 370.928 231.993 370.765 231.72L373.245 231.32L371.855 229.43C371.855 229.43 376.355 224.23 378.045 210.38C380.12 213.885 381.252 217.869 381.329 221.942C381.406 226.015 380.426 230.038 378.485 233.62C377.252 236.09 375.665 238.368 373.775 240.38Z" fill="#673DE6"/>
<g style="mix-blend-mode:overlay" opacity="0.25">
<path d="M378.045 210.38C378.587 212.952 378.921 215.564 379.045 218.19C379.188 220.819 379.101 223.456 378.785 226.07C378.425 228.687 377.753 231.252 376.785 233.71C375.745 236.154 374.305 238.409 372.525 240.38C372.504 240.402 372.48 240.42 372.452 240.433C372.425 240.446 372.395 240.453 372.365 240.454C372.335 240.456 372.305 240.451 372.276 240.441C372.248 240.431 372.222 240.415 372.2 240.395C372.177 240.374 372.159 240.35 372.146 240.322C372.133 240.295 372.126 240.265 372.125 240.235C372.123 240.205 372.128 240.175 372.138 240.147C372.148 240.118 372.164 240.092 372.185 240.07C373.956 238.16 375.399 235.971 376.455 233.59C377.435 231.167 378.123 228.636 378.505 226.05C378.853 223.448 378.976 220.822 378.875 218.2C378.813 215.575 378.536 212.959 378.045 210.38Z" fill="white"/>
</g>
<g style="mix-blend-mode:overlay" opacity="0.25">
<path d="M373.775 240.38L368.515 240.74C372.305 237.34 371.745 234.07 371.175 232.58C372.265 233.225 373.473 233.646 374.729 233.817C375.984 233.989 377.261 233.908 378.485 233.58C377.255 236.064 375.668 238.355 373.775 240.38Z" fill="black"/>
</g>
<path d="M408.045 250.33H322.785L336.445 239.25C336.445 239.25 354.645 229.89 362.235 231.84C369.825 233.79 368.605 240.18 368.605 240.18C368.987 239.776 369.402 239.405 369.845 239.07C371.525 237.76 374.725 235.97 377.975 237.9C382.595 240.66 381.865 244.29 381.835 244.47C381.985 244.32 384.755 241.63 387.005 242.47C388.485 243.14 389.639 244.37 390.215 245.89C390.215 245.89 393.215 241.74 395.705 243.26C397.413 244.426 398.791 246.014 399.705 247.87C399.705 247.87 403.725 243.86 408.045 250.33Z" fill="#673DE6"/>
<g style="mix-blend-mode:overlay" opacity="0.25">
<path d="M391.595 250.33H322.785L336.445 239.25C336.445 239.25 354.645 229.89 362.235 231.84C369.825 233.79 368.605 240.18 368.605 240.18C368.987 239.776 369.402 239.405 369.845 239.07C370.025 240.467 370.025 241.882 369.845 243.28C369.845 243.28 373.695 241.83 376.235 243.92C378.775 246.01 377.995 247.92 377.995 247.92C379.12 247.346 380.366 247.046 381.63 247.046C382.893 247.046 384.139 247.346 385.265 247.92C387.323 248.852 389.437 249.657 391.595 250.33Z" fill="black"/>
</g>
<path d="M434.4 249.939C423.597 249.939 414.018 248.092 405.662 244.399C397.353 240.66 390.797 235.512 385.996 228.957C381.195 222.402 378.748 214.854 378.656 206.313H413.141C413.279 209.406 414.272 212.153 416.119 214.554C417.965 216.908 420.481 218.755 423.667 220.093C426.852 221.432 430.476 222.102 434.538 222.102C438.601 222.102 442.179 221.386 445.272 219.955C448.411 218.478 450.858 216.469 452.612 213.93C454.366 211.345 455.22 208.391 455.174 205.067C455.22 201.743 454.274 198.788 452.335 196.203C450.396 193.618 447.649 191.61 444.094 190.179C440.586 188.748 436.431 188.032 431.63 188.032H417.85V163.657H431.63C435.831 163.657 439.524 162.964 442.71 161.58C445.941 160.195 448.457 158.256 450.257 155.763C452.058 153.224 452.935 150.315 452.889 147.038C452.935 143.852 452.173 141.059 450.604 138.659C449.08 136.212 446.934 134.319 444.164 132.98C441.44 131.642 438.278 130.972 434.677 130.972C430.891 130.972 427.452 131.642 424.359 132.98C421.312 134.319 418.888 136.212 417.088 138.659C415.288 141.105 414.341 143.945 414.249 147.176H381.495C381.587 138.728 383.942 131.295 388.558 124.879C393.175 118.415 399.453 113.36 407.393 109.713C415.38 106.066 424.474 104.243 434.677 104.243C444.833 104.243 453.766 106.02 461.475 109.575C469.185 113.13 475.186 117.977 479.48 124.117C483.773 130.211 485.92 137.112 485.92 144.822C485.966 152.808 483.358 159.387 478.095 164.557C472.878 169.728 466.161 172.913 457.944 174.113V175.221C468.931 176.514 477.218 180.069 482.804 185.885C488.436 191.702 491.229 198.973 491.183 207.698C491.183 215.915 488.759 223.21 483.912 229.58C479.11 235.905 472.417 240.891 463.83 244.538C455.289 248.138 445.479 249.939 434.4 249.939Z" fill="#1D1E20"/>
<path d="M313.109 250.462C300.737 250.462 290.072 247.531 281.116 241.668C272.161 235.759 265.259 227.288 260.412 216.254C255.564 205.175 253.164 191.856 253.21 176.299C253.256 160.741 255.68 147.538 260.481 136.689C265.328 125.794 272.207 117.508 281.116 111.83C290.072 106.105 300.737 103.243 313.109 103.243C325.481 103.243 336.145 106.105 345.101 111.83C354.103 117.508 361.028 125.794 365.875 136.689C370.722 147.584 373.123 160.787 373.077 176.299C373.077 191.902 370.653 205.244 365.806 216.324C360.958 227.403 354.057 235.874 345.101 241.737C336.191 247.554 325.527 250.462 313.109 250.462ZM313.109 222.417C320.495 222.417 326.473 218.655 331.044 211.13C335.614 203.559 337.876 191.949 337.83 176.299C337.83 166.05 336.791 157.602 334.714 150.954C332.636 144.26 329.751 139.274 326.058 135.997C322.365 132.719 318.048 131.08 313.109 131.08C305.768 131.08 299.836 134.797 295.312 142.229C290.788 149.615 288.503 160.972 288.457 176.299C288.411 186.686 289.403 195.295 291.434 202.128C293.512 208.96 296.42 214.061 300.159 217.431C303.899 220.755 308.215 222.417 313.109 222.417Z" fill="#1D1E20"/>
<path d="M128.725 224.456V197.727L186.824 106.182H210.575V142.467H196.795L162.795 196.342V197.45H246.93V224.456H128.725ZM197.211 248V216.285L197.903 204.582V106.182H229.964V248H197.211Z" fill="#1D1E20"/>
<g style="mix-blend-mode:overlay" opacity="0.25">
<path d="M230.455 96.7497C225.695 102.83 209.385 100.66 205.715 101.05C201.555 101.49 172.655 152.38 168.715 158.84C166.135 163.03 161.615 165.01 158.765 165.84L201.535 97.0197V96.6997L230.455 96.7497Z" fill="white"/>
</g>
<g style="mix-blend-mode:overlay" opacity="0.25">
<path d="M328.845 231.69C300.205 233.01 303.515 191.69 303.515 191.69C303.661 202.17 305.098 209.913 307.825 214.92C310.705 220.253 315.275 222.92 321.535 222.92C327.575 222.92 332.041 220.336 334.935 215.17C337.828 210.003 339.301 201.9 339.355 190.86V152.86C339.355 141.806 337.915 133.56 335.035 128.12C332.155 122.68 327.585 119.953 321.325 119.94C321.325 119.94 339.045 117.78 346.275 144C353.505 170.22 357.485 230.37 328.845 231.69Z" fill="black"/>
</g>
<path d="M299.175 109.4C299.175 109.4 287.275 100.8 285.955 87.3997C294.545 89.8197 299.175 100.25 299.175 100.25C299.175 100.25 296.975 90.6697 299.175 84.1297C305.565 93.3097 303.805 100.8 299.175 109.4Z" fill="url(#paint6_linear_11_995)"/>
<path style="mix-blend-mode:hard-light" d="M528.815 187.25C528.815 187.25 528.814 187.53 528.474 187.93C527.985 188.38 527.406 188.721 526.774 188.93C521.334 191 510.234 185.93 504.204 182.57C498.174 179.21 480.974 181.97 469.394 180.4C457.814 178.83 452.904 172.55 442.484 169.99C432.064 167.43 393.244 178.62 391.084 169.92C388.924 161.22 432.524 76.5497 436.254 82.4597C439.984 88.3697 452.904 88.7497 461.954 93.4597C471.004 98.1697 478.774 121.46 488.834 123.79C490.229 124.117 491.574 124.628 492.834 125.31C500.834 129.59 506.634 140.31 506.834 149.15C507.074 159.36 521.015 167.6 526.125 173.09C531.235 178.58 528.815 187.25 528.815 187.25Z" fill="url(#paint7_linear_11_995)"/>
<g style="mix-blend-mode:overlay" opacity="0.25">
<path d="M528.815 187.25C528.815 187.25 528.814 187.53 528.474 187.93C530.284 176.77 519.954 171.47 510.474 163.61C500.734 155.51 504.834 149.4 502.844 141.14C501.724 136.25 496.724 129.71 492.834 125.25C500.834 129.53 506.634 140.25 506.834 149.09C507.074 159.3 521.015 167.54 526.125 173.03C531.235 178.52 528.815 187.25 528.815 187.25Z" fill="white"/>
</g>
<path d="M569.635 240.66V243.96C568.552 243.938 567.47 243.992 566.395 244.12L564.505 244.31L564.205 241.51L565.505 241.31L569.635 240.66Z" fill="url(#paint8_linear_11_995)"/>
<path d="M528.594 185.73L526.014 188.08C525.933 188.157 525.873 188.255 525.84 188.363C525.808 188.471 525.804 188.586 525.829 188.696C525.854 188.806 525.908 188.907 525.984 188.99C526.06 189.074 526.157 189.135 526.264 189.17L528.444 189.87L533.444 195.39C533.5 195.446 533.566 195.49 533.639 195.52C533.712 195.551 533.79 195.566 533.869 195.566C533.948 195.566 534.027 195.551 534.1 195.52C534.172 195.49 534.239 195.446 534.294 195.39L535.124 194.64C535.18 194.584 535.225 194.518 535.255 194.445C535.285 194.372 535.301 194.294 535.301 194.215C535.301 194.136 535.285 194.058 535.255 193.985C535.225 193.912 535.18 193.845 535.124 193.79L530.124 188.27L529.634 186.04C529.603 185.937 529.547 185.843 529.471 185.767C529.395 185.691 529.301 185.635 529.198 185.605C529.095 185.574 528.986 185.569 528.88 185.591C528.775 185.613 528.677 185.661 528.594 185.73Z" fill="#673DE6"/>
<path d="M548.435 189.25C547.775 190.11 546.915 191.25 546.025 192.36C545.695 192.78 545.355 193.2 545.025 193.6C543.645 195.3 542.385 196.71 542.025 196.78C541.025 196.94 535.465 193.78 534.635 193.78C533.805 193.78 531.955 195.14 531.455 195.02C530.955 194.9 528.235 192.38 528.315 191.76C528.395 191.14 530.835 188.99 532.035 188.66C532.709 188.606 533.387 188.677 534.035 188.87H534.165C536.515 189.39 539.885 190.45 540.405 190.18C540.991 189.57 541.47 188.867 541.825 188.1C542.035 187.71 542.255 187.31 542.465 186.9C542.675 186.49 542.995 185.9 543.235 185.41L543.845 184.17C544.505 185.11 545.223 186.009 545.995 186.86C546.698 187.761 547.519 188.565 548.435 189.25Z" fill="url(#paint9_linear_11_995)"/>
<path d="M571.155 195.81C571.155 197.64 571.155 199.38 571.015 200.81C570.575 206.46 570.135 211.09 568.205 211.2C566.275 211.31 565.895 195.89 565.995 194.95C565.995 194.77 565.995 194.38 566.045 193.88C566.045 192.2 566.115 189.19 566.145 187.88C566.134 187.677 566.134 187.473 566.145 187.27L566.505 187.05L570.715 184.36C570.715 184.36 570.955 188.01 571.075 192.16C571.075 192.73 571.075 193.31 571.075 193.89C571.075 194.47 571.155 195.18 571.155 195.81Z" fill="url(#paint10_linear_11_995)"/>
<g style="mix-blend-mode:overlay" opacity="0.25">
<path d="M571.155 195.81C570.023 196.918 568.557 197.621 566.985 197.81C564.345 197.81 568.215 192.45 569.085 192.32C569.435 192.32 570.235 192.24 571.085 192.2C571.085 192.77 571.085 193.35 571.085 193.93C571.085 194.51 571.155 195.18 571.155 195.81Z" fill="black"/>
</g>
<path d="M571.134 193.91C569.714 194.395 568.186 194.472 566.725 194.13C566.487 194.08 566.258 193.996 566.045 193.88C564.425 192.97 565.045 190.29 566.145 187.88C566.265 187.59 566.395 187.32 566.525 187.05L570.735 184.36C570.735 184.36 571.044 189.09 571.134 193.91Z" fill="url(#paint11_linear_11_995)"/>
<path d="M562.204 163.42C562.088 164.134 561.822 164.815 561.424 165.42C560.891 166.313 560.215 167.113 559.424 167.79C559.03 168.19 558.496 168.422 557.934 168.44C556.584 168.25 554.934 166.07 554.874 165.66C554.814 165.25 556.314 165.09 556.124 163.88C555.934 162.67 555.124 162.44 554.584 162.67C554.172 162.975 553.842 163.378 553.624 163.842C553.406 164.306 553.306 164.818 553.334 165.33C552.944 165.33 552.214 163.82 550.854 162.98C550.467 162.733 550.036 162.563 549.584 162.48C548.891 162.352 548.176 162.414 547.514 162.66C547.164 158.28 549.804 156.35 551.844 157.12C551.844 157.12 551.104 155.67 550.024 155.36C550.717 155.44 551.373 155.711 551.919 156.144C552.465 156.577 552.879 157.154 553.114 157.81C553.349 156.938 553.838 156.157 554.518 155.564C555.198 154.971 556.039 154.593 556.934 154.48C560.074 154.1 560.684 158.23 560.684 158.23C561.028 157.19 561.153 156.09 561.054 155C561.343 156.423 561.302 157.894 560.934 159.3C561.434 159.484 561.873 159.803 562.203 160.221C562.533 160.639 562.741 161.141 562.804 161.67C561.534 160.67 561.454 160.78 561.454 160.78C561.767 161.137 561.997 161.559 562.127 162.015C562.257 162.472 562.283 162.952 562.204 163.42Z" fill="url(#paint12_linear_11_995)"/>
<path d="M559.424 167.78C559.174 168.46 558.944 169.11 558.834 169.34C558.584 169.92 555.365 172.62 553.065 169.51C551.71 167.589 550.943 165.318 550.854 162.97C552.214 163.81 552.944 165.27 553.334 165.32C553.306 164.807 553.406 164.296 553.624 163.832C553.842 163.368 554.172 162.965 554.584 162.66C555.164 162.43 555.935 162.66 556.125 163.87C556.315 165.08 554.845 165.24 554.875 165.65C554.905 166.06 556.585 168.24 557.935 168.43C558.496 168.412 559.03 168.179 559.424 167.78Z" fill="url(#paint13_linear_11_995)"/>
<path d="M561.024 154.9C560.968 154.74 560.891 154.589 560.794 154.45C560.902 154.582 560.981 154.735 561.024 154.9Z" fill="#2F172B"/>
<path d="M572.164 183.83C571.868 184.388 571.534 184.926 571.164 185.44L570.834 185.87C570.293 186.561 569.672 187.185 568.984 187.73C568.987 187.77 568.987 187.81 568.984 187.85C568.984 187.94 568.984 188.08 569.054 188.28C569.134 188.73 569.244 189.43 569.364 190.28L569.424 190.7C569.424 191.1 569.524 191.51 569.564 191.94C569.564 192.19 569.624 192.44 569.644 192.69C569.664 192.94 569.644 192.97 569.644 193.11C569.704 193.78 569.734 194.46 569.744 195.11V195.53C569.753 196.201 569.689 196.872 569.554 197.53C569.517 197.673 569.47 197.813 569.414 197.95C569.366 198.095 569.292 198.231 569.194 198.35C569.062 198.502 568.894 198.619 568.704 198.69C567.254 199.34 563.384 199.37 559.554 199.17C556.244 198.99 552.964 198.63 551.304 198.35C550.887 198.289 550.484 198.153 550.114 197.95C549.912 197.842 549.729 197.7 549.574 197.53C549.486 197.439 549.409 197.338 549.344 197.23C549.016 196.578 548.89 195.843 548.984 195.12C549.05 194.485 549.163 193.857 549.324 193.24V193.13C549.324 192.99 549.394 192.85 549.434 192.71C549.604 192.04 549.794 191.37 549.944 190.71C549.944 190.61 549.944 190.51 550.014 190.41V190.29C550.174 189.49 550.284 188.83 550.354 188.29C550.363 188.146 550.363 188.003 550.354 187.86C550.447 187.314 550.447 186.756 550.354 186.21C550.354 186.21 550.014 187.05 549.594 187.86C549.514 188 549.434 188.15 549.344 188.29C549.034 188.83 548.694 189.29 548.424 189.29C548.372 189.3 548.317 189.3 548.264 189.29C547.834 189.007 547.441 188.671 547.094 188.29L546.664 187.86L545.764 186.86C545.474 186.54 545.184 186.2 544.914 185.86L544.564 185.43C544.194 184.97 543.864 184.53 543.564 184.16C543.401 183.936 543.257 183.698 543.134 183.45C543.083 183.357 543.049 183.255 543.034 183.15C543.03 183.106 543.03 183.063 543.034 183.02C543.191 182.335 543.408 181.665 543.684 181.02C543.684 180.88 543.794 180.74 543.854 180.59C544.104 179.99 544.394 179.31 544.724 178.59L544.934 178.17C545.244 177.52 545.584 176.85 545.934 176.17L546.174 175.75C546.564 175.06 546.974 174.39 547.404 173.75L547.704 173.33C548.203 172.608 548.773 171.938 549.404 171.33C549.568 171.175 549.742 171.031 549.924 170.9L550.214 170.69C550.956 170.221 551.743 169.828 552.564 169.52C554.16 168.906 555.855 168.594 557.564 168.6C558.901 168.602 560.225 168.86 561.464 169.36C562.424 169.755 563.328 170.272 564.154 170.9L564.704 171.33C565.431 171.934 566.1 172.604 566.704 173.33L567.054 173.75C567.561 174.39 568.032 175.057 568.464 175.75C568.554 175.89 568.644 176.03 568.724 176.17C569.115 176.818 569.472 177.485 569.794 178.17L570.004 178.59C570.304 179.23 570.584 179.89 570.854 180.59C570.854 180.73 570.964 180.87 571.014 181.02C571.254 181.65 571.484 182.31 571.694 183.02C571.694 183.15 571.774 183.29 571.824 183.43C572.094 183.58 572.124 183.7 572.164 183.83Z" fill="#673DE6"/>
<g style="mix-blend-mode:overlay" opacity="0.25">
<path d="M564.935 171.41H549.655C549.818 171.255 549.992 171.111 550.175 170.98H564.385L564.935 171.41Z" fill="white"/>
</g>
<g style="mix-blend-mode:overlay" opacity="0.25">
<path d="M567.285 173.81H547.655L547.955 173.39H566.955L567.285 173.81Z" fill="white"/>
</g>
<g style="mix-blend-mode:overlay" opacity="0.25">
<path d="M568.955 176.25H546.185L546.425 175.83H568.725C568.785 175.94 568.875 176.08 568.955 176.25Z" fill="white"/>
</g>
<g style="mix-blend-mode:overlay" opacity="0.25">
<path d="M570.235 178.63H544.955L545.165 178.21H570.025L570.235 178.63Z" fill="white"/>
</g>
<g style="mix-blend-mode:overlay" opacity="0.25">
<path d="M571.245 181.05H543.915C543.915 180.91 544.025 180.77 544.085 180.62H571.085C571.135 180.76 571.195 180.9 571.245 181.05Z" fill="white"/>
</g>
<g style="mix-blend-mode:overlay" opacity="0.25">
<path d="M572.055 183.46H543.355C543.303 183.367 543.269 183.265 543.255 183.16C543.25 183.116 543.25 183.073 543.255 183.03H571.925C571.925 183.16 572.005 183.3 572.055 183.44V183.46Z" fill="white"/>
</g>
<g style="mix-blend-mode:overlay" opacity="0.25">
<path d="M571.154 185.44L570.824 185.87H545.084L544.734 185.44H571.154Z" fill="white"/>
</g>
<g style="mix-blend-mode:overlay" opacity="0.25">
<path d="M546.834 187.85H549.724C549.644 187.99 549.564 188.14 549.474 188.28H547.224L546.834 187.85Z" fill="white"/>
</g>
<g style="mix-blend-mode:overlay" opacity="0.25">
<path d="M569.065 188.25H550.455C550.463 188.106 550.463 187.963 550.455 187.82H568.945C569.005 187.94 569.035 188.08 569.065 188.25Z" fill="white"/>
</g>
<g style="mix-blend-mode:overlay" opacity="0.25">
<path d="M569.435 190.68H550.015C550.015 190.58 550.015 190.48 550.085 190.38V190.26H569.345L569.435 190.68Z" fill="white"/>
</g>
<g style="mix-blend-mode:overlay" opacity="0.25">
<path d="M569.725 193.09H549.425C549.425 192.95 549.495 192.81 549.535 192.67H569.685C569.665 192.81 569.725 192.95 569.725 193.09Z" fill="white"/>
</g>
<g style="mix-blend-mode:overlay" opacity="0.25">
<path d="M569.795 195.08V195.5H548.995C548.985 195.36 548.985 195.22 548.995 195.08H569.795Z" fill="white"/>
</g>
<g style="mix-blend-mode:overlay" opacity="0.25">
<path d="M569.605 197.49C569.567 197.633 569.52 197.773 569.465 197.91H550.155C549.952 197.802 549.769 197.66 549.615 197.49H569.605Z" fill="white"/>
</g>
<path d="M570.045 237.91C569.135 238.49 563.045 239.15 563.045 239.15L562.855 238.04L561.725 231.38L559.075 215.63L556.375 235.25L555.595 241.04C555.595 241.04 548.075 241.45 548.075 239.63C548.075 239.41 548.075 238.63 548.075 237.35C548.295 229.35 549.135 203.1 549.335 197.18C549.564 197.503 549.862 197.772 550.208 197.965C550.554 198.159 550.939 198.273 551.335 198.3L551.625 198.35C555.455 198.96 566.095 199.82 568.745 198.64C568.865 199.64 568.975 201.12 569.075 203.02C569.495 210.66 569.795 224.38 569.935 232.14C570.015 235.62 570.045 237.91 570.045 237.91Z" fill="#B6BDD3"/>
<g style="mix-blend-mode:overlay" opacity="0.25">
<path d="M561.725 231.35L559.075 215.6C559.075 215.6 559.795 209.27 560.075 208.55C560.355 207.83 562.285 208.39 563.075 207.84C563.515 208.89 560.755 210.21 560.535 213.51C560.385 215.89 561.225 225.92 561.725 231.35Z" fill="black"/>
</g>
<g style="mix-blend-mode:overlay" opacity="0.25">
<path d="M550.865 200.61C550.865 200.61 550.615 204.2 553.545 205.93" stroke="white" stroke-width="0.463546" stroke-linecap="round" stroke-linejoin="round"/>
</g>
<g style="mix-blend-mode:overlay" opacity="0.25">
<path d="M551.495 205.42L551.455 206.11" stroke="white" stroke-width="0.463546" stroke-linecap="round" stroke-linejoin="round"/>
<path d="M551.394 207.5L549.984 237.24" stroke="white" stroke-width="0.463546" stroke-linecap="round" stroke-linejoin="round" stroke-dasharray="1.39 1.39"/>
<path d="M549.955 237.93L549.915 238.63" stroke="white" stroke-width="0.463546" stroke-linecap="round" stroke-linejoin="round"/>
</g>
<g style="mix-blend-mode:overlay" opacity="0.25">
<path d="M561.765 208.83L564.405 237.14" stroke="white" stroke-width="0.463546" stroke-linecap="round" stroke-linejoin="round" stroke-dasharray="1.39 1.39"/>
</g>
<g style="mix-blend-mode:overlay" opacity="0.25">
<path d="M563.995 201.18C563.995 201.18 563.695 204.64 563.995 205.3C564.295 205.96 565.585 206.53 565.865 206.67C566.145 206.81 567.395 205.67 567.455 204.98C567.515 204.29 567.595 201.32 567.595 201.32C566.409 201.089 565.195 201.042 563.995 201.18Z" stroke="white" stroke-width="0.463546" stroke-linecap="round" stroke-linejoin="round"/>
</g>
<g style="mix-blend-mode:overlay" opacity="0.25">
<path d="M570.044 237.91C569.134 238.49 563.044 239.15 563.044 239.15L562.854 238.04C564.634 237.04 568.154 234.8 569.964 232.15C570.014 235.62 570.044 237.91 570.044 237.91Z" fill="black"/>
</g>
<path d="M570.405 240.54L569.635 240.66L564.205 241.51L563.825 241.57C563.636 241.601 563.442 241.595 563.255 241.55C563.069 241.506 562.893 241.426 562.737 241.313C562.582 241.201 562.45 241.059 562.35 240.895C562.25 240.731 562.184 240.549 562.155 240.36V240.24C562.097 239.858 562.191 239.469 562.418 239.157C562.644 238.844 562.984 238.634 563.365 238.57L569.965 237.57C570.347 237.512 570.736 237.608 571.047 237.837C571.358 238.066 571.566 238.408 571.625 238.79V238.91C571.674 239.287 571.574 239.668 571.346 239.972C571.118 240.277 570.78 240.48 570.405 240.54Z" fill="url(#paint14_linear_11_995)"/>
<g style="mix-blend-mode:overlay" opacity="0.25">
<path d="M556.375 235.25L555.595 241.04C555.595 241.04 548.075 241.45 548.075 239.63C548.075 239.41 548.075 238.63 548.075 237.35C549.895 237.25 553.995 236.76 556.375 235.25Z" fill="black"/>
</g>
<path d="M556.264 241.42V241.55C556.227 241.934 556.038 242.287 555.74 242.533C555.442 242.778 555.059 242.896 554.675 242.86L548.935 242.33L548.074 242.25C547.69 242.212 547.335 242.023 547.088 241.726C546.841 241.428 546.721 241.045 546.755 240.66V240.54C546.79 240.156 546.976 239.801 547.272 239.554C547.568 239.306 547.95 239.186 548.334 239.22L554.985 239.84C555.362 239.883 555.708 240.072 555.948 240.368C556.187 240.663 556.301 241.041 556.264 241.42Z" fill="url(#paint15_linear_11_995)"/>
<g style="mix-blend-mode:overlay" opacity="0.25">
<path d="M569.085 203.03C566.011 203.479 562.879 203.296 559.878 202.493C556.878 201.69 554.073 200.284 551.635 198.36C555.465 198.97 566.105 199.83 568.755 198.65C568.875 199.61 568.985 201.13 569.085 203.03Z" fill="black"/>
</g>
<g style="mix-blend-mode:overlay" opacity="0.25">
<path d="M550.085 190.38C550.795 187.08 550.525 186.2 550.525 186.2C550.525 186.2 549.305 189.2 548.595 189.28C548.265 189.28 547.095 188.17 545.935 186.86C547.178 186.619 548.332 186.045 549.275 185.2C550.505 183.8 550.375 177.81 550.855 177.77C551.335 177.73 552.435 188.84 549.365 193.2C549.595 192.25 549.885 191.3 550.085 190.38Z" fill="black"/>
</g>
<g style="mix-blend-mode:overlay" opacity="0.25">
<path d="M572.165 183.83C571.38 185.334 570.294 186.662 568.975 187.73C568.975 187.73 567.345 179.16 566.855 178.32C566.465 177.66 567.015 176.97 567.915 179.89C568.605 182.15 570.425 183.89 572.055 183.44C572.095 183.57 572.125 183.7 572.165 183.83Z" fill="black"/>
</g>
<g style="mix-blend-mode:overlay" opacity="0.25">
<path d="M569.245 198.31C569.112 198.462 568.944 198.579 568.755 198.65C567.305 199.3 563.434 199.33 559.604 199.13C562.224 198.78 568.494 197.39 569.604 191.92C569.854 194.47 569.975 197.4 569.245 198.31Z" fill="black"/>
</g>
<g style="mix-blend-mode:overlay" opacity="0.25">
<path d="M561.725 169.44C561.385 169.85 560.815 170.03 559.865 169.81C557.985 169.37 555.505 170.25 554.215 170.05C553.732 169.995 553.266 169.842 552.845 169.6C554.44 168.986 556.135 168.674 557.845 168.68C559.175 168.685 560.491 168.943 561.725 169.44Z" fill="black"/>
</g>
<path d="M548.435 189.25C547.775 190.11 546.915 191.25 546.025 192.36C544.355 191.217 542.911 189.776 541.765 188.11C542.525 186.74 543.355 185.06 543.765 184.18C544.425 185.12 545.143 186.019 545.915 186.87C546.644 187.773 547.491 188.574 548.435 189.25Z" fill="url(#paint16_linear_11_995)"/>
<g style="mix-blend-mode:overlay" opacity="0.25">
<path d="M548.435 189.25C547.775 190.11 546.915 191.25 546.025 192.36C545.695 192.78 545.355 193.2 545.025 193.6C545.034 190.768 544.401 187.972 543.175 185.42L543.785 184.18C544.445 185.12 545.163 186.019 545.935 186.87C546.657 187.772 547.498 188.572 548.435 189.25Z" fill="black"/>
</g>
<g style="mix-blend-mode:overlay" opacity="0.25">
<path d="M542.404 186.9C542.22 187.956 541.8 188.958 541.174 189.83C540.844 190.34 541.115 192.62 540.805 192.35C540.495 192.08 540.364 190.97 539.954 190.59C538.041 189.9 536.087 189.325 534.104 188.87C536.454 189.39 539.824 190.45 540.344 190.18C540.93 189.57 541.41 188.867 541.764 188.1C541.974 187.71 542.194 187.31 542.404 186.9Z" fill="white"/>
</g>
<g style="mix-blend-mode:overlay" opacity="0.25">
<path d="M561.424 165.41C560.891 166.303 560.215 167.103 559.424 167.78C559.03 168.179 558.496 168.412 557.935 168.43C556.585 168.24 554.935 166.06 554.875 165.65C554.815 165.24 556.315 165.08 556.125 163.87C555.935 162.66 555.124 162.43 554.584 162.66C554.172 162.965 553.842 163.368 553.624 163.832C553.406 164.296 553.306 164.808 553.334 165.32C552.944 165.32 552.214 163.81 550.854 162.97C550.467 162.723 550.036 162.553 549.584 162.47C550.29 162.336 551.017 162.374 551.704 162.58C552.944 163.1 552.984 163.58 552.984 163.58C553.068 163.037 553.322 162.534 553.71 162.146C554.099 161.757 554.601 161.503 555.144 161.42C556.834 161.13 558.164 165.72 561.424 165.41Z" fill="black"/>
</g>
<path d="M555.595 250.33H542.455C542.362 250.025 542.315 249.708 542.315 249.39C542.286 248.965 542.393 248.541 542.622 248.181C542.85 247.822 543.188 247.544 543.585 247.39L544.775 246.86C546.425 246.08 548.195 245.05 548.485 244.45L548.745 244.57C549.246 244.797 549.764 244.984 550.295 245.13C550.584 245.215 550.883 245.266 551.185 245.28C551.915 245.28 553.345 244.9 554.245 244.79C554.655 244.73 554.955 244.74 555.035 244.87C555.304 246.36 555.468 247.867 555.525 249.38C555.565 249.95 555.595 250.33 555.595 250.33Z" fill="url(#paint17_linear_11_995)"/>
<path d="M554.625 242.86C554.515 243.47 554.385 244.21 554.245 244.8C553.595 244.88 552.665 245.11 551.915 245.22C551.674 245.264 551.43 245.288 551.185 245.29C550.338 245.189 549.513 244.949 548.745 244.58C548.745 243.93 548.825 242.95 548.885 242.33L551.135 242.53L554.625 242.86Z" fill="url(#paint18_linear_11_995)"/>
<path d="M571.344 250.33H563.414C563.311 250.028 563.267 249.708 563.284 249.39C563.3 248.933 563.409 248.483 563.604 248.07C564.174 246.8 563.874 244.74 564.154 244.35H564.504C566.206 244.128 567.919 244.011 569.634 244H569.824C570.354 244.18 570.964 247.64 571.224 249.4C571.284 249.84 571.334 250.18 571.344 250.33Z" fill="url(#paint19_linear_11_995)"/>
<g style="mix-blend-mode:overlay" opacity="0.25">
<path d="M555.524 249.39C555.524 249.95 555.594 250.33 555.594 250.33H542.454C542.362 250.025 542.314 249.708 542.314 249.39H555.524Z" fill="black"/>
</g>
<g style="mix-blend-mode:overlay" opacity="0.25">
<path d="M571.344 250.33H563.414C563.311 250.028 563.267 249.708 563.284 249.39H571.224C571.284 249.84 571.334 250.18 571.344 250.33Z" fill="black"/>
</g>
<path d="M550.294 245.14C549.074 245.96 546.804 247.39 546.034 247.39C545.563 247.387 545.111 247.201 544.774 246.87C546.424 246.09 548.194 245.06 548.484 244.46L548.744 244.58C549.246 244.807 549.764 244.994 550.294 245.14Z" fill="url(#paint20_linear_11_995)"/>
<g style="mix-blend-mode:overlay" opacity="0.25">
<path d="M554.625 242.86C554.515 243.47 554.385 244.21 554.245 244.8C553.595 244.88 552.665 245.11 551.915 245.22L551.135 242.53L554.625 242.86Z" fill="black"/>
</g>
<g style="mix-blend-mode:overlay" opacity="0.25">
<path d="M569.635 240.66V243.96C568.552 243.938 567.47 243.992 566.395 244.12L565.505 241.31L569.635 240.66Z" fill="black"/>
</g>
<path style="mix-blend-mode:hard-light" d="M121.515 187.25C121.515 187.25 119.105 178.53 124.205 173.04C129.305 167.55 143.205 159.31 143.495 149.1C143.785 138.89 151.425 126.1 161.495 123.74C171.565 121.38 179.315 98.0697 188.375 93.4097C197.435 88.7497 210.375 88.3497 214.075 82.4097C217.775 76.4697 261.405 161.18 259.245 169.87C257.085 178.56 218.245 167.39 207.845 169.94C197.445 172.49 192.515 178.77 180.945 180.35C169.375 181.93 152.165 179.12 146.135 182.52C140.105 185.92 128.995 190.95 123.565 188.88C121.365 188.03 121.515 187.25 121.515 187.25Z" fill="url(#paint21_linear_11_995)"/>
<path d="M123.625 188.86L121.165 186.39C121.086 186.308 120.987 186.248 120.878 186.218C120.768 186.187 120.653 186.185 120.543 186.214C120.433 186.242 120.332 186.3 120.252 186.38C120.171 186.46 120.114 186.56 120.085 186.67L119.485 188.88L114.185 194.15C114.074 194.264 114.012 194.416 114.012 194.575C114.012 194.733 114.074 194.886 114.185 195L114.975 195.8C115.088 195.91 115.241 195.972 115.4 195.972C115.558 195.972 115.711 195.91 115.825 195.8L121.125 190.53L123.335 189.94C123.445 189.912 123.546 189.855 123.628 189.775C123.709 189.695 123.767 189.595 123.797 189.485C123.827 189.375 123.826 189.259 123.796 189.149C123.766 189.039 123.706 188.939 123.625 188.86Z" fill="#673DE6"/>
<path d="M98.0546 162.57C98.0546 162.57 97.9946 163.57 97.8246 164.8C97.6962 166.431 97.2477 168.022 96.5046 169.48L96.4246 169.59C95.3646 170.99 93.3446 170.64 92.3146 168.9C92.9246 168.15 93.1846 167.19 92.7846 166.81C91.9346 166.01 92.1646 163.75 93.3746 164.02C94.5846 164.29 94.7746 167.55 95.2146 167.47C95.6546 167.39 97.3046 164.57 98.0546 162.57Z" fill="url(#paint22_linear_11_995)"/>
<path d="M98.3847 161.18C98.3488 161.658 98.2374 162.127 98.0547 162.57C97.9347 162.9 97.7847 163.25 97.6247 163.57C96.7747 165.39 95.5047 167.38 95.2147 167.44C94.7747 167.52 94.5847 164.27 93.3747 163.99C92.1647 163.71 91.9347 165.99 92.7847 166.78C93.1847 167.16 92.9247 168.12 92.3147 168.87C92.0361 169.325 91.5932 169.655 91.0776 169.793C90.562 169.931 90.0132 169.865 89.5447 169.61C87.5447 168.37 87.1547 160.61 87.1747 160C87.1591 159.602 87.2029 159.204 87.3047 158.82C87.4689 158.145 87.7938 157.519 88.2517 156.997C88.7096 156.475 89.287 156.071 89.9347 155.82C92.9347 154.55 98.3847 154.83 98.3847 161.18Z" fill="url(#paint23_linear_11_995)"/>
<path d="M114.155 193.58C114.144 193.661 114.127 193.741 114.105 193.82C114.015 194.17 113.905 194.41 113.775 194.46C113.242 194.467 112.709 194.423 112.185 194.33C110.975 194.17 109.185 193.89 107.595 193.58C106.098 193.354 104.628 192.983 103.205 192.47C102.346 191.769 101.63 190.91 101.095 189.94L100.485 188.94C99.4846 187.34 98.6646 185.73 98.4846 185.29L98.4246 185.18V185.29C98.3331 186.53 98.0948 187.755 97.7146 188.94C97.5946 189.27 97.4646 189.6 97.3146 189.94C97.1793 190.226 97.0256 190.503 96.8546 190.77C96.632 191.203 96.51 191.68 96.4979 192.167C96.4858 192.653 96.5838 193.136 96.7846 193.58C96.7846 193.71 96.8746 193.83 96.9246 193.95C97.0046 194.15 97.0946 194.36 97.1846 194.56C97.3346 194.91 97.5046 195.26 97.6646 195.56C98.1317 196.268 98.3947 197.092 98.4246 197.94C98.3938 198.03 98.3384 198.109 98.2646 198.17C98.1917 198.237 98.1149 198.301 98.0346 198.36C97.5443 198.678 97.0214 198.943 96.4746 199.15C92.5646 200.78 83.8146 202.65 80.0146 199.15C79.9464 199.095 79.8828 199.035 79.8246 198.97C79.72 198.872 79.6361 198.755 79.5777 198.624C79.5193 198.494 79.4876 198.353 79.4846 198.21C79.5383 197.779 79.7077 197.372 79.9746 197.03C80.5624 196.242 81.1033 195.421 81.5946 194.57C81.7634 194.247 81.9103 193.912 82.0346 193.57C82.2491 192.999 82.3935 192.405 82.4646 191.8C82.5446 191.17 82.6046 190.54 82.6546 189.93C82.6546 189.6 82.7046 189.27 82.7146 188.93C82.7946 187.66 82.8046 186.44 82.7946 185.28C82.7946 184.95 82.7946 184.63 82.7946 184.28C82.7946 182.99 82.7146 181.77 82.6646 180.64C82.6646 180.3 82.6646 179.98 82.6646 179.64C82.6105 178.423 82.6339 177.204 82.7346 175.99C82.7619 175.653 82.812 175.319 82.8846 174.99C83.0854 173.582 83.7758 172.289 84.8346 171.34L84.9546 171.23C85.3446 170.91 85.7246 170.62 86.0746 170.36C86.4246 170.1 86.8746 169.82 87.2246 169.6C89.5846 168.18 90.7846 168.38 90.7846 168.38C90.7846 168.38 91.5146 168.38 92.5946 168.62C93.9033 168.831 95.1891 169.166 96.4346 169.62L96.9346 169.83C97.2946 169.98 97.6446 170.15 97.9846 170.33C98.3246 170.51 98.4546 170.59 98.6746 170.73C98.8946 170.87 99.2246 171.1 99.4946 171.31C100.156 171.816 100.719 172.439 101.155 173.15C101.485 173.69 101.815 174.3 102.155 174.96C102.315 175.27 102.475 175.6 102.635 175.96C103.175 177.12 103.695 178.37 104.185 179.61C104.315 179.93 104.445 180.26 104.565 180.61C105.075 181.92 105.565 183.18 105.895 184.25C106.015 184.6 106.125 184.93 106.235 185.25L106.935 187.4C107.065 187.81 107.935 188.2 108.995 188.55C109.345 188.68 109.725 188.79 110.115 188.9C110.865 189.11 111.645 189.31 112.335 189.49C112.855 189.63 113.335 189.76 113.685 189.88C114.035 190 114.315 190.11 114.365 190.21C114.396 190.256 114.419 190.306 114.435 190.36C114.522 191.441 114.427 192.53 114.155 193.58Z" fill="#673DE6"/>
<g style="mix-blend-mode:overlay" opacity="0.25">
<path d="M97.7846 170.68C98.0846 170.84 98.3746 171.02 98.6446 171.2H85.3346L86.0146 170.68H97.7846ZM97.8446 170.45H85.9346C85.5846 170.71 85.2046 171 84.8146 171.32L84.6946 171.43H99.3546C98.8816 171.053 98.3763 170.718 97.8446 170.43V170.45Z" fill="white"/>
<path d="M101.864 175.31L102.114 175.83H82.8545C82.8545 175.64 82.9045 175.47 82.9345 175.31H101.864ZM102.004 175.08H82.7245C82.6518 175.409 82.6017 175.743 82.5745 176.08H102.464C102.304 175.74 102.144 175.41 101.984 175.08H102.004Z" fill="white"/>
<path d="M103.875 179.94L104.085 180.46H82.7747C82.7747 180.29 82.7747 180.12 82.7747 179.94H103.885M104.045 179.71H82.5247C82.5247 180.03 82.5247 180.35 82.5247 180.71H104.385C104.265 180.38 104.135 180.05 104.005 179.71H104.045Z" fill="white"/>
<path d="M105.585 184.56L105.705 184.93L105.755 185.08H82.9446C82.9446 184.91 82.9446 184.74 82.9446 184.56H105.605M105.765 184.33H82.7246C82.7246 184.66 82.7246 184.98 82.7246 185.33H106.095C105.985 185.03 105.875 184.7 105.755 184.33H105.765Z" fill="white"/>
<path d="M97.3345 189.19C97.2645 189.38 97.1945 189.55 97.1245 189.71H82.8245V189.19H97.3045M97.6445 188.96H82.6445C82.6445 189.28 82.6445 189.61 82.5845 189.96H97.2845C97.4345 189.64 97.5645 189.31 97.6845 188.96H97.6445Z" fill="white"/>
<path d="M109.935 189.19L111.675 189.66H111.865H101.225L100.895 189.14H109.895M109.895 188.91H100.415L101.025 189.91H113.465C113.115 189.79 112.635 189.66 112.115 189.52C111.425 189.34 110.645 189.14 109.895 188.93V188.91Z" fill="white"/>
<path d="M96.5847 193.82C96.5847 193.82 96.5847 193.91 96.5847 193.95V194.04L96.6847 194.31H81.7847C81.8647 194.13 81.9446 193.96 82.0146 193.79H96.4846M96.6447 193.55H81.9547C81.8304 193.892 81.6834 194.227 81.5146 194.55H97.1447C97.0547 194.35 96.9647 194.14 96.8847 193.94C96.8847 193.82 96.7947 193.7 96.7447 193.57L96.6447 193.55Z" fill="white"/>
<path d="M113.864 193.82C113.829 193.961 113.778 194.099 113.714 194.23H113.624C113.404 194.23 112.924 194.18 112.214 194.09C111.504 194 110.974 193.92 110.274 193.81H113.864M114.164 193.6H107.604C109.234 193.91 110.984 194.19 112.194 194.35C112.672 194.421 113.152 194.468 113.634 194.49H113.784C113.914 194.49 114.024 194.2 114.114 193.85C114.137 193.771 114.154 193.691 114.164 193.61V193.6Z" fill="white"/>
<path d="M97.4845 198.44C97.1327 198.636 96.7686 198.81 96.3945 198.96H80.0645L79.9445 198.85L79.7845 199.01L79.9045 198.81C79.8016 198.705 79.7231 198.578 79.6745 198.44H97.4845ZM98.2245 198.21H79.4045C79.4076 198.353 79.4392 198.494 79.4976 198.624C79.556 198.755 79.64 198.872 79.7446 198.97C79.8028 199.035 79.8663 199.095 79.9346 199.15H96.3945C96.9413 198.943 97.4643 198.678 97.9545 198.36C98.0348 198.301 98.1116 198.237 98.1846 198.17L98.2245 198.21Z" fill="white"/>
</g>
<path d="M99.6547 241.54C99.5972 241.719 99.5166 241.891 99.4147 242.05C98.3247 243.94 95.3147 244.13 94.2047 243.77C94.0843 243.741 93.9716 243.687 93.8747 243.61C93.2047 243.03 92.6347 238.24 89.0747 211.06V211.25C89.0047 215.11 88.2047 221.97 87.3447 228.25C86.4047 235.25 85.4147 241.54 85.2847 242.53C85.2347 242.855 85.0884 243.158 84.8647 243.4C84.5201 243.722 84.1122 243.969 83.6671 244.124C83.2219 244.28 82.7491 244.342 82.2789 244.305C81.8086 244.269 81.3511 244.134 80.9355 243.911C80.5199 243.688 80.1552 243.381 79.8647 243.01C79.7402 242.858 79.6265 242.698 79.5247 242.53C80.2864 232.683 80.2429 222.79 79.3947 212.95C79.0751 210.038 78.9914 207.105 79.1447 204.18C79.235 202.414 79.4455 200.657 79.7747 198.92C83.5347 202.74 92.7747 200.68 96.6547 199.01C97.1195 198.82 97.565 198.585 97.9847 198.31C99.0647 202.76 98.6547 215.66 99.6547 241.54Z" fill="#B6BDD3"/>
<g style="mix-blend-mode:overlay" opacity="0.25">
<path d="M96.7947 169.95C90.4047 170.15 88.5847 180.08 88.5847 180.08L87.0847 169.69C89.4447 168.27 90.6447 168.47 90.6447 168.47C92.7569 168.654 94.8297 169.153 96.7947 169.95Z" fill="black"/>
</g>
<path d="M106.955 250.25H94.2345C94.1756 249.738 94.1456 249.224 94.1445 248.71C94.1445 248.5 94.1445 248.26 94.1445 248.03C94.1445 246.52 94.1445 244.74 94.2145 243.78C94.6138 243.896 95.0291 243.946 95.4445 243.93C96.5623 243.942 97.6575 243.614 98.5845 242.99C98.9305 242.743 99.2202 242.426 99.4345 242.06C100.311 243.656 101.674 244.931 103.325 245.7C104.655 246.43 105.895 246.91 106.415 247.28C106.631 247.452 106.807 247.669 106.932 247.916C107.056 248.163 107.125 248.433 107.135 248.71C107.166 249.23 107.105 249.751 106.955 250.25Z" fill="url(#paint24_linear_11_995)"/>
<path d="M85.0246 248.7C85.0246 249.7 84.9146 250.24 84.9146 250.24H77.6545C77.7445 249.72 77.8545 249.24 77.9745 248.7C78.456 246.785 79.0914 244.912 79.8745 243.1C80.3065 243.641 80.8907 244.041 81.5519 244.248C82.2131 244.455 82.921 244.459 83.5845 244.26C84.076 244.131 84.5202 243.863 84.8645 243.49C85.0415 245.22 85.095 246.961 85.0246 248.7Z" fill="url(#paint25_linear_11_995)"/>
<path d="M120.945 191.89C120.805 192.69 117.945 195.2 117.085 194.95C116.936 194.903 116.792 194.842 116.655 194.77C115.907 194.227 115.025 193.898 114.105 193.82C114.356 192.705 114.417 191.555 114.285 190.42L114.845 190.16C115.735 189.669 116.714 189.36 117.725 189.25C118.605 189.42 121.075 191.09 120.945 191.89Z" fill="url(#paint26_linear_11_995)"/>
<g style="mix-blend-mode:overlay" opacity="0.25">
<path d="M98.3847 197.98C98.2985 198.155 98.1629 198.301 97.9947 198.4C95.7047 200.03 84.1047 203.4 79.7847 199.01C79.2147 198.42 79.4347 197.83 79.9347 197.07C81.0331 197.83 82.3058 198.302 83.6347 198.44C87.4947 199.07 94.3547 198.02 97.6347 195.64C98.0914 196.338 98.3505 197.146 98.3847 197.98Z" fill="black"/>
</g>
<g style="mix-blend-mode:overlay" opacity="0.25">
<path d="M114.105 193.82C114.015 194.17 113.905 194.41 113.775 194.46C113.242 194.467 112.709 194.423 112.185 194.33C112.634 192.768 112.634 191.111 112.185 189.55C112.889 189.669 113.566 189.913 114.185 190.27C114.216 190.316 114.239 190.366 114.255 190.42C114.396 191.553 114.346 192.703 114.105 193.82Z" fill="black"/>
</g>
<g style="mix-blend-mode:overlay" opacity="0.25">
<path d="M96.8847 193.95C95.4047 192.51 96.0447 191.37 96.8847 188.51C97.7247 185.65 96.0447 184.43 95.7747 181.24C95.5047 178.05 95.7747 176.24 97.7747 174.13C97.0719 175.908 96.7591 177.817 96.8575 179.727C96.9558 181.636 97.463 183.503 98.3447 185.2C98.251 187.151 97.7141 189.056 96.7747 190.77C96.5405 191.271 96.4283 191.82 96.4475 192.373C96.4666 192.926 96.6164 193.466 96.8847 193.95Z" fill="black"/>
</g>
<g style="mix-blend-mode:overlay" opacity="0.25">
<path d="M97.6247 163.6C96.7747 165.42 95.5047 167.41 95.2147 167.47C94.7747 167.55 94.5847 164.3 93.3747 164.02C92.1647 163.74 91.9347 166.02 92.7847 166.81C93.1847 167.19 92.9247 168.15 92.3147 168.9C92.0361 169.355 91.5932 169.685 91.0776 169.823C90.562 169.961 90.0132 169.895 89.5447 169.64C87.5447 168.4 87.1547 160.64 87.1747 160.03C87.1591 159.632 87.2029 159.234 87.3047 158.85C88.3047 158.85 90.5647 158.92 91.1047 160.96C91.45 162.021 91.6123 163.134 91.5847 164.25C91.5934 163.954 91.6676 163.664 91.8021 163.4C91.9365 163.136 92.1279 162.905 92.3623 162.725C92.5966 162.544 92.8682 162.417 93.1575 162.354C93.4467 162.291 93.7463 162.293 94.0347 162.36C95.1647 162.59 96.4147 163.37 97.6247 163.6Z" fill="black"/>
</g>
<path d="M89.3647 160.87C89.3647 160.87 88.5447 159.14 85.8947 159.63C83.2447 160.12 82.0547 163.52 83.2547 169.01C83.2547 164.14 83.9947 163.01 83.9947 163.01C83.9947 163.01 82.8847 166.01 84.3247 172.68C85.7647 179.35 86.6047 185.85 83.0047 188.68C90.1547 184.68 90.5647 179.88 90.1547 174.1C89.7447 168.32 91.0247 163.25 89.3647 160.87Z" fill="url(#paint27_linear_11_995)"/>
<g style="mix-blend-mode:overlay" opacity="0.25">
<path d="M93.6646 166.76C93.9152 167.39 94.2985 167.96 94.7886 168.429C95.2786 168.898 95.8638 169.257 96.5046 169.48L96.4246 169.59L96.2946 169.74C95.0491 169.286 93.7633 168.951 92.4546 168.74C92.9646 168.02 93.1546 167.19 92.7846 166.84C91.9346 166.04 92.1646 163.78 93.3746 164.05C94.5846 164.32 94.7746 167.58 95.2146 167.5C95.6546 167.42 97.3046 164.6 98.0546 162.6C98.0546 162.6 97.9946 163.6 97.8246 164.83C97.3017 165.855 96.6461 166.806 95.8746 167.66C94.9646 168.44 94.6146 167.47 94.3646 166.87C94.1146 166.27 93.7246 166.25 93.6646 166.76Z" fill="black"/>
</g>
<g style="mix-blend-mode:overlay" opacity="0.25">
<path d="M81.2347 204.17C81.2347 204.17 81.0347 207.91 81.5047 208.91C81.9818 209.651 82.6574 210.243 83.4547 210.62C83.4547 210.62 85.2847 209.85 85.7647 208.75C86.0949 207.152 86.2359 205.521 86.1847 203.89C86.1847 203.89 82.5247 202.94 81.2347 204.17Z" stroke="white" stroke-width="0.463546" stroke-miterlimit="10"/>
</g>
<g style="mix-blend-mode:overlay" opacity="0.25">
<path d="M96.8845 201.18C96.9014 202.099 96.6811 203.007 96.245 203.816C95.8088 204.625 95.1715 205.308 94.3945 205.8" stroke="white" stroke-width="0.463546" stroke-linecap="round" stroke-linejoin="round"/>
</g>
<g style="mix-blend-mode:overlay" opacity="0.25">
<path d="M96.2546 203.83L98.3846 240.89" stroke="white" stroke-width="0.463546" stroke-linecap="round" stroke-linejoin="round"/>
</g>
<g style="mix-blend-mode:overlay" opacity="0.25">
<path d="M89.0747 211.25C89.0047 215.11 88.2047 221.97 87.3447 228.25C87.2147 220.87 86.1747 211.71 86.5147 210.25C87.2057 210.903 88.1239 211.262 89.0747 211.25Z" fill="black"/>
</g>
<g style="mix-blend-mode:overlay" opacity="0.25">
<path d="M87.0847 212.22L84.0447 242.46" stroke="white" stroke-width="0.463546" stroke-linecap="round" stroke-linejoin="round"/>
</g>
<g style="mix-blend-mode:overlay" opacity="0.25">
<path d="M96.6646 199.1C94.8546 200.87 89.2745 205.26 79.1545 204.27C79.2449 202.504 79.4554 200.747 79.7845 199.01C83.5445 202.83 92.7946 200.77 96.6646 199.1Z" fill="black"/>
</g>
<g style="mix-blend-mode:overlay" opacity="0.25">
<path d="M77.9745 248.7H85.0246C85.0246 249.7 84.9146 250.24 84.9146 250.24H77.6545C77.7245 249.72 77.8545 249.25 77.9745 248.7Z" fill="black"/>
</g>
<g style="mix-blend-mode:overlay" opacity="0.25">
<path d="M106.955 250.25H94.2245C94.1745 249.9 94.1545 249.35 94.1345 248.71H107.135C107.164 249.23 107.103 249.751 106.955 250.25Z" fill="black"/>
</g>
<g style="mix-blend-mode:overlay" opacity="0.25">
<path d="M103.315 245.69C101.035 246.8 99.3847 244.5 98.5847 242.97C98.9307 242.723 99.2204 242.406 99.4347 242.04C100.307 243.638 101.666 244.917 103.315 245.69Z" fill="white"/>
</g>
<g style="mix-blend-mode:overlay" opacity="0.25">
<path d="M83.5846 244.25C83.3446 247.62 82.1746 247.75 81.5846 247.4C80.9946 247.05 81.4046 244.92 81.5846 244.23C82.2361 244.424 82.9292 244.431 83.5846 244.25Z" fill="black"/>
</g>
<g style="mix-blend-mode:overlay" opacity="0.25">
<path d="M94.1345 248.02C94.1345 246.51 94.1345 244.73 94.2045 243.77C94.6037 243.886 95.0191 243.936 95.4345 243.92C95.5845 245.01 95.7245 247.5 94.1345 248.02Z" fill="black"/>
</g>
<g style="mix-blend-mode:overlay" opacity="0.25">
<path d="M114.105 193.82C114.356 192.705 114.417 191.555 114.285 190.42L114.845 190.16C115.865 191.498 116.491 193.095 116.655 194.77C115.907 194.227 115.025 193.898 114.105 193.82Z" fill="black"/>
</g>
<g style="mix-blend-mode:overlay" opacity="0.25">
<path d="M108.845 188.61C106.845 188.81 105.485 190.91 105.315 190.49C105.145 190.07 106.215 188.96 106.085 188.3C105.955 187.64 102.875 179.71 101.185 175.83C100.441 174.092 99.5551 172.42 98.5347 170.83C98.8147 171.01 99.0847 171.2 99.3547 171.41C100.017 171.916 100.579 172.539 101.015 173.25C101.345 173.79 101.675 174.4 102.015 175.06C102.175 175.37 102.335 175.7 102.495 176.06C103.035 177.22 103.555 178.47 104.045 179.71C104.175 180.03 104.305 180.36 104.425 180.71C104.935 182.02 105.425 183.28 105.755 184.35C105.875 184.7 105.985 185.03 106.095 185.35L106.795 187.5C106.915 187.87 107.725 188.25 108.845 188.61Z" fill="white"/>
</g>
<path d="M592.105 252.25C591.445 251.76 570.625 195.58 594.585 163.53C592.589 177.148 592.09 190.943 593.095 204.67L589.955 207.81L593.425 208.81C593.425 208.81 595.725 240.25 596.895 243.88C594.345 220.4 600.655 206.68 600.655 206.68C600.655 206.68 599.535 223.35 601.655 229.47L600.005 231.69L601.655 231.35C601.655 231.35 600.505 241.43 601.655 244.46C601.655 244.46 615.045 204.46 608.765 186.9C617.025 199.74 614.715 221.17 614.715 221.17L612.565 222.02L613.885 223.02C613.885 223.02 610.415 245.88 602.485 252.32" fill="#673DE6"/>
<g style="mix-blend-mode:overlay">
<path d="M451.835 245.66C451.835 245.66 433.285 243.98 425.835 249.19C429.365 244.19 443.415 241.86 443.415 241.86L444.415 242.64V241.86C446.278 240.993 448.265 240.422 450.305 240.17C433.395 236.82 425.305 240.04 425.305 240.04C427.795 238.184 430.605 236.801 433.595 235.96C436.304 235.059 439.175 234.745 442.015 235.04L444.065 236.3V234.94L462.065 240.22" fill="black"/>
</g>
<path d="M454.224 238.4L452.224 243.27C450.874 238.36 447.694 237.41 446.104 237.27C445.789 237.236 445.47 237.236 445.154 237.27L445.904 234.87L443.584 235.27C443.584 235.27 440.944 228.93 429.294 221.27C433.356 220.973 437.426 221.733 441.106 223.477C444.786 225.221 447.952 227.888 450.294 231.22C451.943 233.412 453.266 235.83 454.224 238.4Z" fill="#673DE6"/>
<g style="mix-blend-mode:overlay" opacity="0.25">
<path d="M429.274 221.25C429.274 221.25 448.604 225.77 453.484 239.58Z" fill="#673DE6"/>
</g>
<g style="mix-blend-mode:overlay" opacity="0.25">
<path d="M454.224 238.4L452.224 243.27C450.874 238.36 447.694 237.41 446.104 237.27C447.174 236.588 448.095 235.698 448.815 234.654C449.535 233.61 450.038 232.432 450.294 231.19C451.945 233.391 453.269 235.819 454.224 238.4Z" fill="#673DE6"/>
</g>
<g style="mix-blend-mode:overlay">
<path d="M531.525 215.05C512.355 230.8 507.395 238.63 507.395 238.63L503.985 237.14C503.985 237.14 503.985 237.25 503.985 237.43C503.985 238.28 504.065 240.76 503.985 241.59C503.905 242.42 497.075 245.98 493.185 248.02L490.545 249.39L487.345 246.19L487.675 245.56L489.335 242.33C492.8 237.62 496.774 233.307 501.185 229.47C508.635 222.94 519.155 216.15 531.525 215.05Z" fill="black"/>
<g style="mix-blend-mode:overlay" opacity="0.25">
<path d="M489.475 248.32C489.475 248.32 508.945 218.72 531.475 215.05Z" fill="black"/>
</g>
<g style="mix-blend-mode:overlay" opacity="0.25">
<path d="M503.985 241.59C503.905 242.3 497.075 245.98 493.185 248.02C491.301 247.309 489.461 246.488 487.675 245.56L489.335 242.33C492.8 237.62 496.774 233.307 501.185 229.47C501.651 232.279 502.601 234.986 503.995 237.47C504.015 238.25 504.075 240.76 503.985 241.59Z" fill="black"/>
</g>
</g>
<g style="mix-blend-mode:overlay">
<path d="M519.464 204.7C505.744 216.11 499.464 225.65 496.884 230.52C496.262 231.637 495.727 232.8 495.284 234L492.284 232.9L493.504 235.65L489.144 244.46L487.234 248.32V232.96C487.824 231.83 488.624 230.35 489.654 228.65C491.987 224.759 494.69 221.102 497.724 217.73C499.322 215.948 501.039 214.278 502.864 212.73C507.571 208.603 513.307 205.828 519.464 204.7Z" fill="black"/>
<g style="mix-blend-mode:overlay" opacity="0.25">
<path d="M487.254 239.15C487.254 239.15 495.834 213.56 519.464 204.7Z" fill="black"/>
</g>
<g style="mix-blend-mode:overlay" opacity="0.25">
<path d="M495.284 234L492.284 232.9L493.504 235.65L489.144 244.46L487.234 244.74V232.96C487.824 231.83 488.624 230.35 489.654 228.65C490.649 229.464 491.809 230.053 493.054 230.376C494.299 230.699 495.599 230.748 496.864 230.52C496.249 231.637 495.721 232.801 495.284 234Z" fill="black"/>
</g>
</g>
<path d="M536.915 250.33H487.255V243.33C487.855 242.159 488.816 241.213 489.995 240.63C490.692 240.273 491.447 240.043 492.225 239.95C493.223 239.755 494.258 239.9 495.165 240.362C496.071 240.824 496.797 241.577 497.225 242.5C497.225 242.5 498.135 239.85 501.845 239.5C505.555 239.15 507.655 244.82 507.795 245.15C507.795 244.87 507.515 241.74 510.275 241.54C513.035 241.34 513.125 245.25 513.125 245.25C513.125 245.25 515.445 242.74 518.415 242.9C519.267 242.955 520.08 243.282 520.733 243.833C521.386 244.384 521.846 245.129 522.045 245.96C522.66 245.187 523.494 244.619 524.439 244.33C525.383 244.04 526.393 244.044 527.335 244.34C530.975 245.18 531.385 250.33 536.915 250.33Z" fill="#673DE6"/>
<g style="mix-blend-mode:overlay" opacity="0.25">
<path d="M521.405 250.33H487.255V243.33C487.855 242.159 488.816 241.213 489.995 240.63C491.485 240.74 494.105 241.22 495.195 243.24C496.143 244.975 496.718 246.889 496.885 248.86C496.885 248.86 500.215 244.09 502.885 244.91C505.555 245.73 506.945 248.86 506.945 248.86C506.945 248.86 509.745 245.86 512.105 246.86C513.275 247.42 517.505 248.94 521.405 250.33Z" fill="black"/>
</g>
<path d="M423.385 252.25C423.205 252.11 417.385 236.32 424.085 227.3C423.524 231.13 423.383 235.009 423.665 238.87L422.785 239.76L423.785 240.03C423.785 240.03 424.435 248.87 424.785 249.89C424.065 243.29 425.845 239.43 425.845 239.43C425.845 239.43 425.525 244.12 426.135 245.84L425.665 246.46L426.135 246.37C425.965 247.59 425.965 248.829 426.135 250.05C426.135 250.05 429.895 238.81 428.135 233.87C430.455 237.48 429.805 243.5 429.805 243.5L429.195 243.74L429.575 244.01C429.575 244.01 428.575 250.44 426.365 252.25" fill="#673DE6"/>
<g style="mix-blend-mode:overlay">
<path d="M196.725 247.15C196.725 247.15 167.425 227.41 150.285 229.25C160.715 224.17 186.175 233.14 186.175 233.14L187.175 235.39L187.895 234.1C191.78 234.355 195.6 235.223 199.215 236.67C174.215 215.67 157.845 213.62 157.845 213.62C163.674 212.805 169.604 213.076 175.335 214.42C185.335 216.63 190.145 220.58 190.145 220.58L192.405 224.58L193.655 222.34L218.655 247.53" fill="black"/>
</g>
<path d="M215.225 193.81C214.165 218.6 216.685 227.51 216.685 227.51L213.295 229.06L213.525 229.25C214.175 229.8 216.065 231.41 216.615 232.03C217.165 232.65 215.275 240.11 214.205 244.37C213.765 246.07 213.455 247.25 213.455 247.25L208.935 247.49L208.685 246.83L207.395 243.44C206.197 237.716 205.637 231.877 205.725 226.03C205.825 216.13 207.795 203.76 215.225 193.81Z" fill="#673DE6"/>
<g style="mix-blend-mode:overlay" opacity="0.25">
<path d="M211.725 247.39C210.656 242.93 209.865 238.408 209.355 233.85C208.81 229.301 208.57 224.721 208.635 220.14C208.68 215.553 209.189 210.983 210.155 206.5C211.095 202.01 212.81 197.72 215.225 193.82C212.828 197.732 211.136 202.033 210.225 206.53C209.302 211.008 208.837 215.568 208.835 220.14C208.803 224.71 209.077 229.276 209.655 233.81C210.219 238.337 211.06 242.826 212.175 247.25C212.187 247.309 212.176 247.371 212.145 247.423C212.113 247.475 212.063 247.513 212.005 247.53C211.975 247.537 211.944 247.539 211.914 247.534C211.884 247.53 211.855 247.519 211.829 247.503C211.803 247.487 211.78 247.467 211.762 247.442C211.745 247.417 211.732 247.389 211.725 247.36V247.39Z" fill="white"/>
</g>
<g style="mix-blend-mode:overlay" opacity="0.25">
<path d="M216.615 232.03C217.095 232.57 215.275 240.11 214.205 244.37C212.414 245.296 210.571 246.118 208.685 246.83L207.395 243.44C206.197 237.716 205.637 231.877 205.725 226.03C208.118 227.548 210.758 228.637 213.525 229.25C214.175 229.8 216.065 231.41 216.615 232.03Z" fill="black"/>
</g>
<path d="M232.725 210.89C226.605 221.57 224.845 229.26 224.345 233.03C224.213 233.904 224.146 234.786 224.145 235.67H221.955L223.405 237.16L222.715 243.91L222.415 246.86L218.725 236.93C218.835 236.06 218.995 234.93 219.255 233.56C219.821 230.483 220.685 227.469 221.835 224.56C222.441 223.031 223.149 221.544 223.955 220.11C225.991 216.3 229.022 213.114 232.725 210.89Z" fill="#673DE6"/>
<g style="mix-blend-mode:overlay" opacity="0.25">
<path d="M219.945 240.94C219.971 238.128 220.266 235.325 220.825 232.57C221.367 229.82 222.161 227.125 223.195 224.52C224.221 221.912 225.546 219.432 227.145 217.13L228.365 215.42L229.735 213.84C229.965 213.58 230.185 213.31 230.425 213.05L231.185 212.33L232.705 210.89L231.205 212.35L230.455 213.08C230.225 213.34 230.005 213.61 229.775 213.88L228.435 215.48L227.235 217.19C225.679 219.507 224.398 221.997 223.415 224.61C222.418 227.201 221.665 229.879 221.165 232.61C220.651 235.339 220.4 238.112 220.415 240.89C220.412 240.95 220.387 241.007 220.345 241.05C220.302 241.092 220.245 241.117 220.185 241.12C220.154 241.121 220.123 241.116 220.094 241.105C220.065 241.094 220.038 241.077 220.016 241.056C219.993 241.034 219.975 241.009 219.963 240.98C219.951 240.951 219.945 240.921 219.945 240.89V240.94Z" fill="white"/>
</g>
<g style="mix-blend-mode:overlay" opacity="0.25">
<path d="M224.125 235.67H221.935L223.385 237.16L222.695 243.91L221.525 244.55L218.725 236.93C218.835 236.06 218.995 234.93 219.255 233.56C220.094 233.845 220.986 233.945 221.868 233.854C222.75 233.762 223.601 233.481 224.365 233.03C224.22 233.903 224.139 234.785 224.125 235.67Z" fill="black"/>
</g>
<path d="M253.725 250.25H241.305L187.305 250.3H171.305C171.305 250.3 172.625 245.97 178.905 243.99C185.185 242.01 187.005 246.12 187.005 246.12C187.005 246.12 186.665 237.9 194.105 235.12C201.545 232.34 204.845 241.71 204.845 241.71C204.845 241.71 206.335 237.07 214.265 236.71C222.195 236.35 221.375 242.51 221.375 242.51C223.014 240.922 225.005 239.744 227.186 239.071C229.367 238.399 231.676 238.251 233.925 238.64C242.025 239.78 242.855 246.2 242.855 246.2C242.855 246.2 249.925 244.07 253.725 250.25Z" fill="#673DE6"/>
<g style="mix-blend-mode:overlay" opacity="0.25">
<path d="M241.305 250.25L187.305 250.3C190.095 247.81 194.655 244.59 199.515 244.54C207.445 244.45 208.725 247.32 208.725 247.32C208.725 247.32 213.615 242.14 217.465 243.02C221.315 243.9 221.465 248.02 221.465 248.02C221.465 248.02 233.825 245.19 241.305 250.25Z" fill="black"/>
</g>
<path d="M262.645 253.7C262.645 253.7 253.645 237.82 256.365 222.39C257.963 229.64 261.059 236.476 265.455 242.46L262.815 244.55H265.455L271.075 255.25L263.465 253.69V254.42L262.645 253.7Z" fill="#673DE6"/>
<defs>
<linearGradient id="paint0_linear_11_995" x1="327.265" y1="249.72" x2="329.905" y2="46.1597" gradientUnits="userSpaceOnUse">
<stop stop-color="#EBE4FF"/>
<stop offset="1" stop-color="#EBE4FF"/>
</linearGradient>
<linearGradient id="paint1_linear_11_995" x1="326.645" y1="147.15" x2="330.115" y2="241.33" gradientUnits="userSpaceOnUse">
<stop/>
<stop offset="1" stop-opacity="0"/>
</linearGradient>
<linearGradient id="paint2_linear_11_995" x1="344.024" y1="63.3997" x2="344.684" y2="86.5297" gradientUnits="userSpaceOnUse">
<stop stop-color="white"/>
<stop offset="1" stop-color="white" stop-opacity="0"/>
</linearGradient>
<linearGradient id="paint3_linear_11_995" x1="129.825" y1="25.3697" x2="131.805" y2="76.2597" gradientUnits="userSpaceOnUse">
<stop stop-color="white"/>
<stop offset="1" stop-color="white" stop-opacity="0"/>
</linearGradient>
<linearGradient id="paint4_linear_11_995" x1="455.475" y1="228.46" x2="433.665" y2="40.5997" gradientUnits="userSpaceOnUse">
<stop stop-color="#EBE4FF"/>
<stop offset="1" stop-color="#EBE4FF"/>
</linearGradient>
<linearGradient id="paint5_linear_11_995" x1="59.8046" y1="429.72" x2="23.0446" y2="113.12" gradientUnits="userSpaceOnUse">
<stop stop-color="#EBE4FF"/>
<stop offset="1" stop-color="#EBE4FF"/>
</linearGradient>
<linearGradient id="paint6_linear_11_995" x1="288.795" y1="72.6497" x2="300.025" y2="108.34" gradientUnits="userSpaceOnUse">
<stop stop-color="#1D1E20"/>
<stop offset="1" stop-color="#1D1E20"/>
</linearGradient>
<linearGradient id="paint7_linear_11_995" x1="575.065" y1="235.79" x2="417.105" y2="125.42" gradientUnits="userSpaceOnUse">
<stop stop-color="white"/>
<stop offset="1" stop-color="white" stop-opacity="0"/>
</linearGradient>
<linearGradient id="paint8_linear_11_995" x1="567.005" y1="246.01" x2="566.865" y2="238.3" gradientUnits="userSpaceOnUse">
<stop stop-color="#FECBA6"/>
<stop offset="1" stop-color="#D17878"/>
</linearGradient>
<linearGradient id="paint9_linear_11_995" x1="529.455" y1="199.57" x2="554.015" y2="176.22" gradientUnits="userSpaceOnUse">
<stop stop-color="#FECBA6"/>
<stop offset="1" stop-color="#D17878"/>
</linearGradient>
<linearGradient id="paint10_linear_11_995" x1="568.415" y1="208.66" x2="568.745" y2="182" gradientUnits="userSpaceOnUse">
<stop stop-color="#FECBA6"/>
<stop offset="1" stop-color="#D17878"/>
</linearGradient>
<linearGradient id="paint11_linear_11_995" x1="565.075" y1="189.35" x2="571.134" y2="189.35" gradientUnits="userSpaceOnUse">
<stop stop-color="#1D1E20"/>
<stop offset="1" stop-color="#1D1E20"/>
</linearGradient>
<linearGradient id="paint12_linear_11_995" x1="547.484" y1="161.44" x2="562.804" y2="161.44" gradientUnits="userSpaceOnUse">
<stop stop-color="#1D1E20"/>
<stop offset="1" stop-color="#1D1E20"/>
</linearGradient>
<linearGradient id="paint13_linear_11_995" x1="552.064" y1="166.09" x2="557.764" y2="167.33" gradientUnits="userSpaceOnUse">
<stop stop-color="#FECBA6"/>
<stop offset="1" stop-color="#D17878"/>
</linearGradient>
<linearGradient id="paint14_linear_11_995" x1="562.115" y1="239.56" x2="571.645" y2="239.56" gradientUnits="userSpaceOnUse">
<stop stop-color="#1D1E20"/>
<stop offset="1" stop-color="#1D1E20"/>
</linearGradient>
<linearGradient id="paint15_linear_11_995" x1="546.705" y1="241.04" x2="556.274" y2="241.04" gradientUnits="userSpaceOnUse">
<stop stop-color="#1D1E20"/>
<stop offset="1" stop-color="#1D1E20"/>
</linearGradient>
<linearGradient id="paint16_linear_11_995" x1="541.765" y1="188.26" x2="548.435" y2="188.26" gradientUnits="userSpaceOnUse">
<stop stop-color="#1D1E20"/>
<stop offset="1" stop-color="#1D1E20"/>
</linearGradient>
<linearGradient id="paint17_linear_11_995" x1="542.315" y1="247.39" x2="555.595" y2="247.39" gradientUnits="userSpaceOnUse">
<stop stop-color="#1D1E20"/>
<stop offset="1" stop-color="#1D1E20"/>
</linearGradient>
<linearGradient id="paint18_linear_11_995" x1="550.185" y1="250.21" x2="552.605" y2="238.59" gradientUnits="userSpaceOnUse">
<stop stop-color="#FECBA6"/>
<stop offset="1" stop-color="#D17878"/>
</linearGradient>
<linearGradient id="paint19_linear_11_995" x1="563.284" y1="247.13" x2="571.344" y2="247.13" gradientUnits="userSpaceOnUse">
<stop stop-color="#1D1E20"/>
<stop offset="1" stop-color="#1D1E20"/>
</linearGradient>
<linearGradient id="paint20_linear_11_995" x1="544.774" y1="245.93" x2="550.294" y2="245.93" gradientUnits="userSpaceOnUse">
<stop stop-color="#1D1E20"/>
<stop offset="1" stop-color="#1D1E20"/>
</linearGradient>
<linearGradient id="paint21_linear_11_995" x1="75.2745" y1="235.79" x2="233.225" y2="125.42" gradientUnits="userSpaceOnUse">
<stop stop-color="white"/>
<stop offset="1" stop-color="white" stop-opacity="0"/>
</linearGradient>
<linearGradient id="paint22_linear_11_995" x1="95.4146" y1="163.09" x2="93.4846" y2="173.72" gradientUnits="userSpaceOnUse">
<stop stop-color="#FECBA6"/>
<stop offset="1" stop-color="#D17878"/>
</linearGradient>
<linearGradient id="paint23_linear_11_995" x1="87.1747" y1="162.57" x2="98.3847" y2="162.57" gradientUnits="userSpaceOnUse">
<stop stop-color="#1D1E20"/>
<stop offset="1" stop-color="#1D1E20"/>
</linearGradient>
<linearGradient id="paint24_linear_11_995" x1="94.1345" y1="246.15" x2="107.135" y2="246.15" gradientUnits="userSpaceOnUse">
<stop stop-color="#1D1E20"/>
<stop offset="1" stop-color="#1D1E20"/>
</linearGradient>
<linearGradient id="paint25_linear_11_995" x1="77.6545" y1="246.67" x2="85.0546" y2="246.67" gradientUnits="userSpaceOnUse">
<stop stop-color="#1D1E20"/>
<stop offset="1" stop-color="#1D1E20"/>
</linearGradient>
<linearGradient id="paint26_linear_11_995" x1="123.995" y1="190.21" x2="112.835" y2="193.39" gradientUnits="userSpaceOnUse">
<stop stop-color="#FECBA6"/>
<stop offset="1" stop-color="#D17878"/>
</linearGradient>
<linearGradient id="paint27_linear_11_995" x1="82.7847" y1="174.13" x2="90.2647" y2="174.13" gradientUnits="userSpaceOnUse">
<stop stop-color="#1D1E20"/>
<stop offset="1" stop-color="#1D1E20"/>
</linearGradient>
</defs>
</svg>
