<svg width="200" height="40" viewBox="0 0 200 40" fill="none" xmlns="http://www.w3.org/2000/svg">
<rect x="30.5664" y="3.70251" width="0.384973" height="2.69481" fill="#01299C"/>
<path d="M25.6166 0.0728789L19.7595 2.96018L25.6441 5.73748C25.9301 5.86947 26.2399 5.79248 26.3591 5.73748L32.2161 3.15266L26.3316 0.0728789C26.0896 -0.0591118 25.7541 0.0178828 25.6166 0.0728789Z" fill="url(#paint0_linear_25_83)"/>
<circle cx="30.7589" cy="6.91981" r="0.632455" fill="url(#paint1_linear_25_83)"/>
<circle cx="26.0567" cy="10.0822" r="3.13478" fill="url(#paint2_linear_25_83)"/>
<path d="M40.328 30.8431C35.1584 32.867 31.2262 36.1961 29.9062 37.6076C34.13 34.5499 40.8138 33.0888 43.6278 32.7405C44.0678 32.6745 44.1777 32.273 44.1777 32.0805C44.0898 24.887 49.2924 20.7972 51.9047 19.6514C52.1247 19.4974 51.9964 19.3856 51.9047 19.3489C43.8973 18.007 41.6754 21.7229 41.5654 23.7486V29.0832C41.5654 30.0732 40.7405 30.669 40.328 30.8431Z" fill="url(#paint3_linear_25_83)"/>
<circle cx="46.1853" cy="14.9767" r="2.69481" fill="url(#paint4_linear_25_83)"/>
<path d="M37.4958 14.2618C27.4205 20.4433 25.635 33.9962 26.0016 40C30.9733 33.4664 37.0558 30.4031 39.4757 29.6882C40.1136 29.4462 40.2181 28.7441 40.1906 28.4233V7.44225C40.0586 6.43033 39.2923 6.7273 38.9257 7.00228L29.3839 13.4918C27.668 14.7237 27.1657 18.6065 27.129 20.3938C30.4068 15.9062 35.3693 14.2893 37.4408 14.0418C37.5728 14.1078 37.5325 14.2159 37.4958 14.2618Z" fill="url(#paint5_linear_25_83)"/>
<path d="M11.6981 30.8431C16.8677 32.867 20.8 36.1961 22.1199 37.6076C17.8962 34.5499 11.2123 33.0888 8.39834 32.7405C7.95837 32.6745 7.84838 32.273 7.84838 32.0805C7.93637 24.887 2.73374 20.7972 0.121422 19.6514C-0.0985622 19.4974 0.0297604 19.3856 0.121422 19.3489C8.12886 18.007 10.3507 21.7229 10.4607 23.7486V29.0832C10.4607 30.0732 11.2856 30.669 11.6981 30.8431Z" fill="url(#paint6_linear_25_83)"/>
<circle cx="2.69481" cy="2.69481" r="2.69481" transform="matrix(-1 0 0 1 8.53564 12.2819)" fill="url(#paint7_linear_25_83)"/>
<path d="M14.5303 14.2618C24.6056 20.4433 26.3911 33.9962 26.0245 40C21.0529 33.4664 14.9703 30.4031 12.5505 29.6882C11.9125 29.4462 11.808 28.7441 11.8355 28.4233V7.44225C11.9675 6.43033 12.7338 6.7273 13.1004 7.00228L22.6422 13.4918C24.3581 14.7237 24.8604 18.6065 24.8971 20.3938C21.6193 15.9062 16.6568 14.2893 14.5853 14.0418C14.4533 14.1078 14.4936 14.2159 14.5303 14.2618Z" fill="url(#paint8_linear_25_83)"/>
<path d="M56.63 17.7C56.63 16.464 56.906 15.36 57.458 14.388C58.022 13.404 58.784 12.642 59.744 12.102C60.716 11.55 61.802 11.274 63.002 11.274C64.406 11.274 65.636 11.634 66.692 12.354C67.748 13.074 68.486 14.07 68.906 15.342H66.008C65.72 14.742 65.312 14.292 64.784 13.992C64.268 13.692 63.668 13.542 62.984 13.542C62.252 13.542 61.598 13.716 61.022 14.064C60.458 14.4 60.014 14.88 59.69 15.504C59.378 16.128 59.222 16.86 59.222 17.7C59.222 18.528 59.378 19.26 59.69 19.896C60.014 20.52 60.458 21.006 61.022 21.354C61.598 21.69 62.252 21.858 62.984 21.858C63.668 21.858 64.268 21.708 64.784 21.408C65.312 21.096 65.72 20.64 66.008 20.04H68.906C68.486 21.324 67.748 22.326 66.692 23.046C65.648 23.754 64.418 24.108 63.002 24.108C61.802 24.108 60.716 23.838 59.744 23.298C58.784 22.746 58.022 21.984 57.458 21.012C56.906 20.04 56.63 18.936 56.63 17.7ZM73.5784 10.68V24H71.0584V10.68H73.5784ZM75.4202 18.978C75.4202 17.97 75.6182 17.076 76.0142 16.296C76.4222 15.516 76.9682 14.916 77.6522 14.496C78.3482 14.076 79.1222 13.866 79.9742 13.866C80.7182 13.866 81.3662 14.016 81.9182 14.316C82.4822 14.616 82.9322 14.994 83.2682 15.45V14.028H85.8062V24H83.2682V22.542C82.9442 23.01 82.4942 23.4 81.9182 23.712C81.3542 24.012 80.7002 24.162 79.9562 24.162C79.1162 24.162 78.3482 23.946 77.6522 23.514C76.9682 23.082 76.4222 22.476 76.0142 21.696C75.6182 20.904 75.4202 19.998 75.4202 18.978ZM83.2682 19.014C83.2682 18.402 83.1482 17.88 82.9082 17.448C82.6682 17.004 82.3442 16.668 81.9362 16.44C81.5282 16.2 81.0902 16.08 80.6222 16.08C80.1542 16.08 79.7222 16.194 79.3262 16.422C78.9302 16.65 78.6062 16.986 78.3542 17.43C78.1142 17.862 77.9942 18.378 77.9942 18.978C77.9942 19.578 78.1142 20.106 78.3542 20.562C78.6062 21.006 78.9302 21.348 79.3262 21.588C79.7342 21.828 80.1662 21.948 80.6222 21.948C81.0902 21.948 81.5282 21.834 81.9362 21.606C82.3442 21.366 82.6682 21.03 82.9082 20.598C83.1482 20.154 83.2682 19.626 83.2682 19.014ZM92.0834 24.162C91.2674 24.162 90.5354 24.018 89.8874 23.73C89.2394 23.43 88.7234 23.028 88.3394 22.524C87.9674 22.02 87.7634 21.462 87.7274 20.85H90.2654C90.3134 21.234 90.4994 21.552 90.8234 21.804C91.1594 22.056 91.5734 22.182 92.0654 22.182C92.5454 22.182 92.9174 22.086 93.1814 21.894C93.4574 21.702 93.5954 21.456 93.5954 21.156C93.5954 20.832 93.4274 20.592 93.0914 20.436C92.7674 20.268 92.2454 20.088 91.5254 19.896C90.7814 19.716 90.1694 19.53 89.6894 19.338C89.2214 19.146 88.8134 18.852 88.4654 18.456C88.1294 18.06 87.9614 17.526 87.9614 16.854C87.9614 16.302 88.1174 15.798 88.4294 15.342C88.7534 14.886 89.2094 14.526 89.7974 14.262C90.3974 13.998 91.0994 13.866 91.9034 13.866C93.0914 13.866 94.0394 14.166 94.7474 14.766C95.4554 15.354 95.8454 16.152 95.9174 17.16H93.5054C93.4694 16.764 93.3014 16.452 93.0014 16.224C92.7134 15.984 92.3234 15.864 91.8314 15.864C91.3754 15.864 91.0214 15.948 90.7694 16.116C90.5294 16.284 90.4094 16.518 90.4094 16.818C90.4094 17.154 90.5774 17.412 90.9134 17.592C91.2494 17.76 91.7714 17.934 92.4794 18.114C93.1994 18.294 93.7934 18.48 94.2614 18.672C94.7294 18.864 95.1314 19.164 95.4674 19.572C95.8154 19.968 95.9954 20.496 96.0074 21.156C96.0074 21.732 95.8454 22.248 95.5214 22.704C95.2094 23.16 94.7534 23.52 94.1534 23.784C93.5654 24.036 92.8754 24.162 92.0834 24.162ZM101.892 24.162C101.076 24.162 100.344 24.018 99.696 23.73C99.048 23.43 98.532 23.028 98.148 22.524C97.776 22.02 97.572 21.462 97.536 20.85H100.074C100.122 21.234 100.308 21.552 100.632 21.804C100.968 22.056 101.382 22.182 101.874 22.182C102.354 22.182 102.726 22.086 102.99 21.894C103.266 21.702 103.404 21.456 103.404 21.156C103.404 20.832 103.236 20.592 102.9 20.436C102.576 20.268 102.054 20.088 101.334 19.896C100.59 19.716 99.978 19.53 99.498 19.338C99.03 19.146 98.622 18.852 98.274 18.456C97.938 18.06 97.77 17.526 97.77 16.854C97.77 16.302 97.926 15.798 98.238 15.342C98.562 14.886 99.018 14.526 99.606 14.262C100.206 13.998 100.908 13.866 101.712 13.866C102.9 13.866 103.848 14.166 104.556 14.766C105.264 15.354 105.654 16.152 105.726 17.16H103.314C103.278 16.764 103.11 16.452 102.81 16.224C102.522 15.984 102.132 15.864 101.64 15.864C101.184 15.864 100.83 15.948 100.578 16.116C100.338 16.284 100.218 16.518 100.218 16.818C100.218 17.154 100.386 17.412 100.722 17.592C101.058 17.76 101.58 17.934 102.288 18.114C103.008 18.294 103.602 18.48 104.07 18.672C104.538 18.864 104.94 19.164 105.276 19.572C105.624 19.968 105.804 20.496 105.816 21.156C105.816 21.732 105.654 22.248 105.33 22.704C105.018 23.16 104.562 23.52 103.962 23.784C103.374 24.036 102.684 24.162 101.892 24.162ZM120.269 13.884C121.493 13.884 122.477 14.262 123.221 15.018C123.977 15.762 124.355 16.806 124.355 18.15V24H121.835V18.492C121.835 17.712 121.637 17.118 121.241 16.71C120.845 16.29 120.305 16.08 119.621 16.08C118.937 16.08 118.391 16.29 117.983 16.71C117.587 17.118 117.389 17.712 117.389 18.492V24H114.869V18.492C114.869 17.712 114.671 17.118 114.275 16.71C113.879 16.29 113.339 16.08 112.655 16.08C111.959 16.08 111.407 16.29 110.999 16.71C110.603 17.118 110.405 17.712 110.405 18.492V24H107.885V14.028H110.405V15.234C110.729 14.814 111.143 14.484 111.647 14.244C112.163 14.004 112.727 13.884 113.339 13.884C114.119 13.884 114.815 14.052 115.427 14.388C116.039 14.712 116.513 15.18 116.849 15.792C117.173 15.216 117.641 14.754 118.253 14.406C118.877 14.058 119.549 13.884 120.269 13.884ZM126.098 18.978C126.098 17.97 126.296 17.076 126.692 16.296C127.1 15.516 127.646 14.916 128.33 14.496C129.026 14.076 129.8 13.866 130.652 13.866C131.396 13.866 132.044 14.016 132.596 14.316C133.16 14.616 133.61 14.994 133.946 15.45V14.028H136.484V24H133.946V22.542C133.622 23.01 133.172 23.4 132.596 23.712C132.032 24.012 131.378 24.162 130.634 24.162C129.794 24.162 129.026 23.946 128.33 23.514C127.646 23.082 127.1 22.476 126.692 21.696C126.296 20.904 126.098 19.998 126.098 18.978ZM133.946 19.014C133.946 18.402 133.826 17.88 133.586 17.448C133.346 17.004 133.022 16.668 132.614 16.44C132.206 16.2 131.768 16.08 131.3 16.08C130.832 16.08 130.4 16.194 130.004 16.422C129.608 16.65 129.284 16.986 129.032 17.43C128.792 17.862 128.672 18.378 128.672 18.978C128.672 19.578 128.792 20.106 129.032 20.562C129.284 21.006 129.608 21.348 130.004 21.588C130.412 21.828 130.844 21.948 131.3 21.948C131.768 21.948 132.206 21.834 132.614 21.606C133.022 21.366 133.346 21.03 133.586 20.598C133.826 20.154 133.946 19.626 133.946 19.014ZM141.879 16.098V20.922C141.879 21.258 141.957 21.504 142.113 21.66C142.281 21.804 142.557 21.876 142.941 21.876H144.111V24H142.527C140.403 24 139.341 22.968 139.341 20.904V16.098H138.153V14.028H139.341V11.562H141.879V14.028H144.111V16.098H141.879ZM155.194 18.798C155.194 19.158 155.17 19.482 155.122 19.77H147.832C147.892 20.49 148.144 21.054 148.588 21.462C149.032 21.87 149.578 22.074 150.226 22.074C151.162 22.074 151.828 21.672 152.224 20.868H154.942C154.654 21.828 154.102 22.62 153.286 23.244C152.47 23.856 151.468 24.162 150.28 24.162C149.32 24.162 148.456 23.952 147.688 23.532C146.932 23.1 146.338 22.494 145.906 21.714C145.486 20.934 145.276 20.034 145.276 19.014C145.276 17.982 145.486 17.076 145.906 16.296C146.326 15.516 146.914 14.916 147.67 14.496C148.426 14.076 149.296 13.866 150.28 13.866C151.228 13.866 152.074 14.07 152.818 14.478C153.574 14.886 154.156 15.468 154.564 16.224C154.984 16.968 155.194 17.826 155.194 18.798ZM152.584 18.078C152.572 17.43 152.338 16.914 151.882 16.53C151.426 16.134 150.868 15.936 150.208 15.936C149.584 15.936 149.056 16.128 148.624 16.512C148.204 16.884 147.946 17.406 147.85 18.078H152.584ZM169.872 11.436V13.47H166.524V24H164.004V13.47H160.656V11.436H169.872ZM180.981 18.798C180.981 19.158 180.957 19.482 180.909 19.77H173.619C173.679 20.49 173.931 21.054 174.375 21.462C174.819 21.87 175.365 22.074 176.013 22.074C176.949 22.074 177.615 21.672 178.011 20.868H180.729C180.441 21.828 179.889 22.62 179.073 23.244C178.257 23.856 177.255 24.162 176.067 24.162C175.107 24.162 174.243 23.952 173.475 23.532C172.719 23.1 172.125 22.494 171.693 21.714C171.273 20.934 171.063 20.034 171.063 19.014C171.063 17.982 171.273 17.076 171.693 16.296C172.113 15.516 172.701 14.916 173.457 14.496C174.213 14.076 175.083 13.866 176.067 13.866C177.015 13.866 177.861 14.07 178.605 14.478C179.361 14.886 179.943 15.468 180.351 16.224C180.771 16.968 180.981 17.826 180.981 18.798ZM178.371 18.078C178.359 17.43 178.125 16.914 177.669 16.53C177.213 16.134 176.655 15.936 175.995 15.936C175.371 15.936 174.843 16.128 174.411 16.512C173.991 16.884 173.733 17.406 173.637 18.078H178.371ZM186.636 24.162C185.82 24.162 185.088 24.018 184.44 23.73C183.792 23.43 183.276 23.028 182.892 22.524C182.52 22.02 182.316 21.462 182.28 20.85H184.818C184.866 21.234 185.052 21.552 185.376 21.804C185.712 22.056 186.126 22.182 186.618 22.182C187.098 22.182 187.47 22.086 187.734 21.894C188.01 21.702 188.148 21.456 188.148 21.156C188.148 20.832 187.98 20.592 187.644 20.436C187.32 20.268 186.798 20.088 186.078 19.896C185.334 19.716 184.722 19.53 184.242 19.338C183.774 19.146 183.366 18.852 183.018 18.456C182.682 18.06 182.514 17.526 182.514 16.854C182.514 16.302 182.67 15.798 182.982 15.342C183.306 14.886 183.762 14.526 184.35 14.262C184.95 13.998 185.652 13.866 186.456 13.866C187.644 13.866 188.592 14.166 189.3 14.766C190.008 15.354 190.398 16.152 190.47 17.16H188.058C188.022 16.764 187.854 16.452 187.554 16.224C187.266 15.984 186.876 15.864 186.384 15.864C185.928 15.864 185.574 15.948 185.322 16.116C185.082 16.284 184.962 16.518 184.962 16.818C184.962 17.154 185.13 17.412 185.466 17.592C185.802 17.76 186.324 17.934 187.032 18.114C187.752 18.294 188.346 18.48 188.814 18.672C189.282 18.864 189.684 19.164 190.02 19.572C190.368 19.968 190.548 20.496 190.56 21.156C190.56 21.732 190.398 22.248 190.074 22.704C189.762 23.16 189.306 23.52 188.706 23.784C188.118 24.036 187.428 24.162 186.636 24.162ZM195.563 16.098V20.922C195.563 21.258 195.641 21.504 195.797 21.66C195.965 21.804 196.241 21.876 196.625 21.876H197.795V24H196.211C194.087 24 193.025 22.968 193.025 20.904V16.098H191.837V14.028H193.025V11.562H195.563V14.028H197.795V16.098H195.563Z" fill="url(#paint9_linear_25_83)"/>
<path d="M62.402 29.788V30.61H61.286V34H60.26V30.61H59.144V29.788H62.402ZM66.5229 30.61V31.462H67.8969V32.254H66.5229V33.178H68.0769V34H65.4969V29.788H68.0769V30.61H66.5229ZM72.847 34.042C72.539 34.042 72.263 33.992 72.019 33.892C71.775 33.792 71.579 33.644 71.431 33.448C71.287 33.252 71.211 33.016 71.203 32.74H72.295C72.311 32.896 72.365 33.016 72.457 33.1C72.549 33.18 72.669 33.22 72.817 33.22C72.969 33.22 73.089 33.186 73.177 33.118C73.265 33.046 73.309 32.948 73.309 32.824C73.309 32.72 73.273 32.634 73.201 32.566C73.133 32.498 73.047 32.442 72.943 32.398C72.843 32.354 72.699 32.304 72.511 32.248C72.239 32.164 72.017 32.08 71.845 31.996C71.673 31.912 71.525 31.788 71.401 31.624C71.277 31.46 71.215 31.246 71.215 30.982C71.215 30.59 71.357 30.284 71.641 30.064C71.925 29.84 72.295 29.728 72.751 29.728C73.215 29.728 73.589 29.84 73.873 30.064C74.157 30.284 74.309 30.592 74.329 30.988H73.219C73.211 30.852 73.161 30.746 73.069 30.67C72.977 30.59 72.859 30.55 72.715 30.55C72.591 30.55 72.491 30.584 72.415 30.652C72.339 30.716 72.301 30.81 72.301 30.934C72.301 31.07 72.365 31.176 72.493 31.252C72.621 31.328 72.821 31.41 73.093 31.498C73.365 31.59 73.585 31.678 73.753 31.762C73.925 31.846 74.073 31.968 74.197 32.128C74.321 32.288 74.383 32.494 74.383 32.746C74.383 32.986 74.321 33.204 74.197 33.4C74.077 33.596 73.901 33.752 73.669 33.868C73.437 33.984 73.163 34.042 72.847 34.042ZM80.6244 29.788V30.61H79.5084V34H78.4824V30.61H77.3664V29.788H80.6244ZM84.7453 30.61V31.462H86.1193V32.254H84.7453V33.178H86.2993V34H83.7193V29.788H86.2993V30.61H84.7453ZM91.1234 29.788C91.5674 29.788 91.9554 29.876 92.2874 30.052C92.6194 30.228 92.8754 30.476 93.0554 30.796C93.2394 31.112 93.3314 31.478 93.3314 31.894C93.3314 32.306 93.2394 32.672 93.0554 32.992C92.8754 33.312 92.6174 33.56 92.2814 33.736C91.9494 33.912 91.5634 34 91.1234 34H89.5454V29.788H91.1234ZM91.0574 33.112C91.4454 33.112 91.7474 33.006 91.9634 32.794C92.1794 32.582 92.2874 32.282 92.2874 31.894C92.2874 31.506 92.1794 31.204 91.9634 30.988C91.7474 30.772 91.4454 30.664 91.0574 30.664H90.5714V33.112H91.0574ZM96.9648 34.048C96.7848 34.048 96.6368 33.996 96.5208 33.892C96.4088 33.784 96.3528 33.652 96.3528 33.496C96.3528 33.336 96.4088 33.202 96.5208 33.094C96.6368 32.986 96.7848 32.932 96.9648 32.932C97.1408 32.932 97.2848 32.986 97.3968 33.094C97.5128 33.202 97.5708 33.336 97.5708 33.496C97.5708 33.652 97.5128 33.784 97.3968 33.892C97.2848 33.996 97.1408 34.048 96.9648 34.048ZM106.134 34.042C105.826 34.042 105.55 33.992 105.306 33.892C105.062 33.792 104.866 33.644 104.718 33.448C104.574 33.252 104.498 33.016 104.49 32.74H105.582C105.598 32.896 105.652 33.016 105.744 33.1C105.836 33.18 105.956 33.22 106.104 33.22C106.256 33.22 106.376 33.186 106.464 33.118C106.552 33.046 106.596 32.948 106.596 32.824C106.596 32.72 106.56 32.634 106.488 32.566C106.42 32.498 106.334 32.442 106.23 32.398C106.13 32.354 105.986 32.304 105.798 32.248C105.526 32.164 105.304 32.08 105.132 31.996C104.96 31.912 104.812 31.788 104.688 31.624C104.564 31.46 104.502 31.246 104.502 30.982C104.502 30.59 104.644 30.284 104.928 30.064C105.212 29.84 105.582 29.728 106.038 29.728C106.502 29.728 106.876 29.84 107.16 30.064C107.444 30.284 107.596 30.592 107.616 30.988H106.506C106.498 30.852 106.448 30.746 106.356 30.67C106.264 30.59 106.146 30.55 106.002 30.55C105.878 30.55 105.778 30.584 105.702 30.652C105.626 30.716 105.588 30.81 105.588 30.934C105.588 31.07 105.652 31.176 105.78 31.252C105.908 31.328 106.108 31.41 106.38 31.498C106.652 31.59 106.872 31.678 107.04 31.762C107.212 31.846 107.36 31.968 107.484 32.128C107.608 32.288 107.67 32.494 107.67 32.746C107.67 32.986 107.608 33.204 107.484 33.4C107.364 33.596 107.188 33.752 106.956 33.868C106.724 33.984 106.45 34.042 106.134 34.042ZM111.907 30.61V31.462H113.281V32.254H111.907V33.178H113.461V34H110.881V29.788H113.461V30.61H111.907ZM116.533 31.888C116.533 31.472 116.623 31.102 116.803 30.778C116.983 30.45 117.233 30.196 117.553 30.016C117.877 29.832 118.243 29.74 118.651 29.74C119.151 29.74 119.579 29.872 119.935 30.136C120.291 30.4 120.529 30.76 120.649 31.216H119.521C119.437 31.04 119.317 30.906 119.161 30.814C119.009 30.722 118.835 30.676 118.639 30.676C118.323 30.676 118.067 30.786 117.871 31.006C117.675 31.226 117.577 31.52 117.577 31.888C117.577 32.256 117.675 32.55 117.871 32.77C118.067 32.99 118.323 33.1 118.639 33.1C118.835 33.1 119.009 33.054 119.161 32.962C119.317 32.87 119.437 32.736 119.521 32.56H120.649C120.529 33.016 120.291 33.376 119.935 33.64C119.579 33.9 119.151 34.03 118.651 34.03C118.243 34.03 117.877 33.94 117.553 33.76C117.233 33.576 116.983 33.322 116.803 32.998C116.623 32.674 116.533 32.304 116.533 31.888ZM124.865 29.788V32.308C124.865 32.56 124.927 32.754 125.051 32.89C125.175 33.026 125.357 33.094 125.597 33.094C125.837 33.094 126.021 33.026 126.149 32.89C126.277 32.754 126.341 32.56 126.341 32.308V29.788H127.367V32.302C127.367 32.678 127.287 32.996 127.127 33.256C126.967 33.516 126.751 33.712 126.479 33.844C126.211 33.976 125.911 34.042 125.579 34.042C125.247 34.042 124.949 33.978 124.685 33.85C124.425 33.718 124.219 33.522 124.067 33.262C123.915 32.998 123.839 32.678 123.839 32.302V29.788H124.865ZM132.816 34L131.94 32.41H131.694V34H130.668V29.788H132.39C132.722 29.788 133.004 29.846 133.236 29.962C133.472 30.078 133.648 30.238 133.764 30.442C133.88 30.642 133.938 30.866 133.938 31.114C133.938 31.394 133.858 31.644 133.698 31.864C133.542 32.084 133.31 32.24 133.002 32.332L133.974 34H132.816ZM131.694 31.684H132.33C132.518 31.684 132.658 31.638 132.75 31.546C132.846 31.454 132.894 31.324 132.894 31.156C132.894 30.996 132.846 30.87 132.75 30.778C132.658 30.686 132.518 30.64 132.33 30.64H131.694V31.684ZM138.188 30.61V31.462H139.562V32.254H138.188V33.178H139.742V34H137.162V29.788H139.742V30.61H138.188ZM143.468 34.048C143.288 34.048 143.14 33.996 143.024 33.892C142.912 33.784 142.856 33.652 142.856 33.496C142.856 33.336 142.912 33.202 143.024 33.094C143.14 32.986 143.288 32.932 143.468 32.932C143.644 32.932 143.788 32.986 143.9 33.094C144.016 33.202 144.074 33.336 144.074 33.496C144.074 33.652 144.016 33.784 143.9 33.892C143.788 33.996 143.644 34.048 143.468 34.048ZM153.261 34L152.385 32.41H152.139V34H151.113V29.788H152.835C153.167 29.788 153.449 29.846 153.681 29.962C153.917 30.078 154.093 30.238 154.209 30.442C154.325 30.642 154.383 30.866 154.383 31.114C154.383 31.394 154.303 31.644 154.143 31.864C153.987 32.084 153.755 32.24 153.447 32.332L154.419 34H153.261ZM152.139 31.684H152.775C152.963 31.684 153.103 31.638 153.195 31.546C153.291 31.454 153.339 31.324 153.339 31.156C153.339 30.996 153.291 30.87 153.195 30.778C153.103 30.686 152.963 30.64 152.775 30.64H152.139V31.684ZM158.633 30.61V31.462H160.007V32.254H158.633V33.178H160.187V34H157.607V29.788H160.187V30.61H158.633ZM164.459 33.208H165.803V34H163.433V29.788H164.459V33.208ZM169.898 29.788V34H168.872V29.788H169.898ZM175.844 33.256H174.272L174.02 34H172.946L174.47 29.788H175.658L177.182 34H176.096L175.844 33.256ZM175.58 32.464L175.058 30.922L174.542 32.464H175.58ZM182.776 31.84C183.02 31.892 183.216 32.014 183.364 32.206C183.512 32.394 183.586 32.61 183.586 32.854C183.586 33.206 183.462 33.486 183.214 33.694C182.97 33.898 182.628 34 182.188 34H180.226V29.788H182.122C182.55 29.788 182.884 29.886 183.124 30.082C183.368 30.278 183.49 30.544 183.49 30.88C183.49 31.128 183.424 31.334 183.292 31.498C183.164 31.662 182.992 31.776 182.776 31.84ZM181.252 31.492H181.924C182.092 31.492 182.22 31.456 182.308 31.384C182.4 31.308 182.446 31.198 182.446 31.054C182.446 30.91 182.4 30.8 182.308 30.724C182.22 30.648 182.092 30.61 181.924 30.61H181.252V31.492ZM182.008 33.172C182.18 33.172 182.312 33.134 182.404 33.058C182.5 32.978 182.548 32.864 182.548 32.716C182.548 32.568 182.498 32.452 182.398 32.368C182.302 32.284 182.168 32.242 181.996 32.242H181.252V33.172H182.008ZM187.787 33.208H189.131V34H186.761V29.788H187.787V33.208ZM193.226 30.61V31.462H194.6V32.254H193.226V33.178H194.78V34H192.2V29.788H194.78V30.61H193.226ZM198.506 34.048C198.326 34.048 198.178 33.996 198.062 33.892C197.95 33.784 197.894 33.652 197.894 33.496C197.894 33.336 197.95 33.202 198.062 33.094C198.178 32.986 198.326 32.932 198.506 32.932C198.682 32.932 198.826 32.986 198.938 33.094C199.054 33.202 199.112 33.336 199.112 33.496C199.112 33.652 199.054 33.784 198.938 33.892C198.826 33.996 198.682 34.048 198.506 34.048Z" fill="#5B5B5B"/>
<defs>
<linearGradient id="paint0_linear_25_83" x1="25.9878" y1="0" x2="25.9878" y2="5.81036" gradientUnits="userSpaceOnUse">
<stop stop-color="#224BBE"/>
<stop offset="1" stop-color="#01299C"/>
</linearGradient>
<linearGradient id="paint1_linear_25_83" x1="30.7589" y1="6.28735" x2="30.7589" y2="7.55226" gradientUnits="userSpaceOnUse">
<stop stop-color="#224BBE"/>
<stop offset="1" stop-color="#01299C"/>
</linearGradient>
<linearGradient id="paint2_linear_25_83" x1="26.0567" y1="6.94739" x2="26.0567" y2="13.2169" gradientUnits="userSpaceOnUse">
<stop stop-color="#224BBE"/>
<stop offset="1" stop-color="#01299C"/>
</linearGradient>
<linearGradient id="paint3_linear_25_83" x1="52.0261" y1="19.4135" x2="29.8626" y2="37.6173" gradientUnits="userSpaceOnUse">
<stop stop-color="#1AB79F"/>
<stop offset="1" stop-color="#17A0AB"/>
</linearGradient>
<linearGradient id="paint4_linear_25_83" x1="48.314" y1="13.2539" x2="44.4643" y2="17.1311" gradientUnits="userSpaceOnUse">
<stop stop-color="#1AB79F"/>
<stop offset="1" stop-color="#17A0AB"/>
</linearGradient>
<linearGradient id="paint5_linear_25_83" x1="39.707" y1="6.73692" x2="25.9855" y2="40.0096" gradientUnits="userSpaceOnUse">
<stop stop-color="#FDAB06"/>
<stop offset="1" stop-color="#F95A11"/>
</linearGradient>
<linearGradient id="paint6_linear_25_83" x1="22.1909" y1="37.7273" x2="0.0274619" y2="19.4135" gradientUnits="userSpaceOnUse">
<stop stop-color="#C6005B"/>
<stop offset="1" stop-color="#EC2881"/>
</linearGradient>
<linearGradient id="paint7_linear_25_83" x1="0.643922" y1="4.40931" x2="5.12611" y2="1.41202" gradientUnits="userSpaceOnUse">
<stop stop-color="#C6005B"/>
<stop offset="1" stop-color="#EC2881"/>
</linearGradient>
<linearGradient id="paint8_linear_25_83" x1="26.0405" y1="40.0371" x2="12.2365" y2="6.76442" gradientUnits="userSpaceOnUse">
<stop stop-color="#4429CA"/>
<stop offset="1" stop-color="#176FFD"/>
</linearGradient>
<linearGradient id="paint9_linear_25_83" x1="56" y1="17.5" x2="199" y2="17.5" gradientUnits="userSpaceOnUse">
<stop stop-color="#01299C"/>
<stop offset="0.25" stop-color="#176FFD"/>
<stop offset="0.5" stop-color="#FDAB06"/>
<stop offset="0.745192" stop-color="#EC2881"/>
<stop offset="1" stop-color="#F95A11"/>
</linearGradient>
</defs>
</svg>
